<svg width="360" height="48" viewBox="0 0 360 48" fill="none" xmlns="http://www.w3.org/2000/svg">
<mask id="path-1-inside-1_1_6434" fill="white">
<path fill-rule="evenodd" clip-rule="evenodd" d="M56.135 12.8736C66.4708 13.5212 74.6174 20.7846 74.6174 29.6494C74.6174 38.4913 66.5129 45.7399 56.2152 46.42C51.937 47.2237 45.4822 47.4177 35.9757 46.8055C25.4 47.3992 18.4122 47.1535 13.9385 46.2775C4.34689 45.0419 -3 38.0677 -3 29.6492C-3 20.6863 5.32805 13.3604 15.8265 12.8544C19.5877 5.71607 27.1988 0.834473 35.9757 0.834473C44.7605 0.834473 52.3774 5.72484 56.135 12.8736Z"/>
</mask>
<path d="M56.135 12.8736L55.4752 13.2204L55.6702 13.5913L56.0884 13.6175L56.135 12.8736ZM56.2152 46.42L56.1661 45.6763L56.1215 45.6792L56.0776 45.6875L56.2152 46.42ZM35.9757 46.8055L36.0236 46.0617L35.9788 46.0588L35.9339 46.0613L35.9757 46.8055ZM13.9385 46.2775L14.0818 45.546L14.0579 45.5414L14.0338 45.5383L13.9385 46.2775ZM15.8265 12.8544L15.8624 13.5989L16.2876 13.5784L16.486 13.2018L15.8265 12.8544ZM56.0884 13.6175C66.1482 14.2479 73.872 21.2854 73.872 29.6494H75.3628C75.3628 20.2838 66.7933 12.7946 56.1816 12.1297L56.0884 13.6175ZM73.872 29.6494C73.872 37.9919 66.1884 45.0144 56.1661 45.6763L56.2643 47.1637C66.8374 46.4655 75.3628 38.9907 75.3628 29.6494H73.872ZM56.0776 45.6875C51.8929 46.4736 45.513 46.6728 36.0236 46.0617L35.9278 47.5493C45.4513 48.1626 51.981 47.9739 56.3528 47.1525L56.0776 45.6875ZM35.9339 46.0613C25.3711 46.6543 18.4601 46.4034 14.0818 45.546L13.7953 47.009C18.3642 47.9036 25.4288 48.1442 36.0175 47.5497L35.9339 46.0613ZM14.0338 45.5383C4.70661 44.3367 -2.25465 37.5939 -2.25465 29.6492H-3.74535C-3.74535 38.5415 3.98718 45.7471 13.8433 47.0167L14.0338 45.5383ZM-2.25465 29.6492C-2.25465 21.193 5.64227 14.0915 15.8624 13.5989L15.7907 12.1099C5.01383 12.6294 -3.74535 20.1795 -3.74535 29.6492H-2.25465ZM16.486 13.2018C20.1203 6.30415 27.48 1.57983 35.9757 1.57983V0.0891194C26.9176 0.0891194 19.0551 5.12798 15.1671 12.507L16.486 13.2018ZM35.9757 1.57983C44.4791 1.57983 51.8443 6.31264 55.4752 13.2204L56.7948 12.5268C52.9105 5.13703 45.042 0.0891194 35.9757 0.0891194V1.57983Z" fill="#3782ED" mask="url(#path-1-inside-1_1_6434)"/>
<mask id="mask0_1_6434" style="mask-type:alpha" maskUnits="userSpaceOnUse" x="93" y="0" width="78" height="48">
<path fill-rule="evenodd" clip-rule="evenodd" d="M152.388 12.874C162.724 13.5222 170.869 20.7854 170.869 29.6499C170.869 38.4927 162.763 45.742 152.464 46.4209C148.186 47.224 141.732 47.4176 132.228 46.8056C121.662 47.3988 114.678 47.1541 110.204 46.2801C100.605 45.0492 93.2515 38.0723 93.2515 29.6499C93.2515 20.6867 101.58 13.3607 112.079 12.8548C115.84 5.71597 123.451 0.833984 132.228 0.833984C141.014 0.833984 148.631 5.72472 152.388 12.874Z" fill="#D2DEEF"/>
</mask>
<g mask="url(#mask0_1_6434)">
<line x1="127.14" y1="100.904" x2="83.119" y2="7.24477" stroke="#3782ED" stroke-width="0.723061"/>
<line x1="131.721" y1="98.7512" x2="87.7" y2="5.09169" stroke="#3782ED" stroke-width="0.723061"/>
<line x1="136.301" y1="96.5984" x2="92.2806" y2="2.93886" stroke="#3782ED" stroke-width="0.723061"/>
<line x1="140.882" y1="94.4453" x2="96.8612" y2="0.785785" stroke="#3782ED" stroke-width="0.723061"/>
<line x1="145.462" y1="92.2925" x2="101.442" y2="-1.36705" stroke="#3782ED" stroke-width="0.723061"/>
<line x1="150.043" y1="90.1394" x2="106.023" y2="-3.52012" stroke="#3782ED" stroke-width="0.723061"/>
<line x1="154.624" y1="87.9865" x2="110.603" y2="-5.67296" stroke="#3782ED" stroke-width="0.723061"/>
<line x1="159.205" y1="85.8337" x2="115.184" y2="-7.82579" stroke="#3782ED" stroke-width="0.723061"/>
<line x1="163.786" y1="83.6806" x2="119.765" y2="-9.97886" stroke="#3782ED" stroke-width="0.723061"/>
<line x1="168.366" y1="81.5278" x2="124.346" y2="-12.1317" stroke="#3782ED" stroke-width="0.723061"/>
<line x1="172.947" y1="79.3747" x2="128.926" y2="-14.2848" stroke="#3782ED" stroke-width="0.723061"/>
<line x1="177.527" y1="77.2219" x2="133.507" y2="-16.4376" stroke="#3782ED" stroke-width="0.723061"/>
<line x1="182.108" y1="75.0688" x2="138.088" y2="-18.5907" stroke="#3782ED" stroke-width="0.723061"/>
<line x1="186.689" y1="72.9157" x2="142.668" y2="-20.7438" stroke="#3782ED" stroke-width="0.723061"/>
<line x1="191.269" y1="70.7632" x2="147.249" y2="-22.8963" stroke="#3782ED" stroke-width="0.723061"/>
</g>
<mask id="path-19-inside-2_1_6434" fill="white">
<path fill-rule="evenodd" clip-rule="evenodd" d="M248.638 12.8735C258.973 13.5212 267.12 20.7845 267.12 29.6492C267.12 38.4906 259.016 45.7389 248.72 46.4197C244.441 47.2237 237.986 47.4178 228.479 46.8055C217.903 47.3992 210.915 47.1535 206.441 46.2775C196.85 45.0419 189.503 38.0677 189.503 29.6492C189.503 20.6863 197.831 13.3604 208.329 12.8544C212.091 5.71607 219.702 0.834473 228.479 0.834473C237.263 0.834473 244.88 5.72477 248.638 12.8735Z"/>
</mask>
<path d="M248.638 12.8735L247.978 13.2203L248.173 13.5912L248.591 13.6174L248.638 12.8735ZM248.72 46.4197L248.67 45.676L248.626 45.6789L248.582 45.6872L248.72 46.4197ZM228.479 46.8055L228.527 46.0617L228.482 46.0588L228.437 46.0613L228.479 46.8055ZM206.441 46.2775L206.585 45.546L206.561 45.5414L206.537 45.5383L206.441 46.2775ZM208.329 12.8544L208.365 13.5989L208.79 13.5784L208.989 13.2018L208.329 12.8544ZM248.591 13.6174C258.651 14.2478 266.375 21.2853 266.375 29.6492H267.865C267.865 20.2837 259.296 12.7946 248.684 12.1296L248.591 13.6174ZM266.375 29.6492C266.375 37.9912 258.692 45.0134 248.67 45.676L248.769 47.1634C259.341 46.4644 267.865 38.9899 267.865 29.6492H266.375ZM248.582 45.6872C244.397 46.4736 238.017 46.6728 228.527 46.0617L228.431 47.5493C237.955 48.1627 244.486 47.9738 248.857 47.1522L248.582 45.6872ZM228.437 46.0613C217.874 46.6543 210.963 46.4034 206.585 45.546L206.298 47.009C210.867 47.9036 217.932 48.1442 228.52 47.5497L228.437 46.0613ZM206.537 45.5383C197.21 44.3367 190.248 37.5939 190.248 29.6492H188.758C188.758 38.5415 196.49 45.7471 206.346 47.0167L206.537 45.5383ZM190.248 29.6492C190.248 21.193 198.145 14.0915 208.365 13.5989L208.294 12.1099C197.517 12.6294 188.758 20.1795 188.758 29.6492H190.248ZM208.989 13.2018C212.623 6.30415 219.983 1.57983 228.479 1.57983V0.0891194C219.421 0.0891194 211.558 5.12798 207.67 12.507L208.989 13.2018ZM228.479 1.57983C236.982 1.57983 244.347 6.31258 247.978 13.2203L249.298 12.5267C245.413 5.13696 237.545 0.0891194 228.479 0.0891194V1.57983Z" fill="#3782ED" mask="url(#path-19-inside-2_1_6434)"/>
<mask id="mask1_1_6434" style="mask-type:alpha" maskUnits="userSpaceOnUse" x="285" y="0" width="79" height="48">
<path fill-rule="evenodd" clip-rule="evenodd" d="M344.891 12.874C355.226 13.5222 363.372 20.7854 363.372 29.6499C363.372 38.4927 355.266 45.742 344.967 46.4209C340.688 47.224 334.234 47.4176 324.731 46.8056C314.165 47.3988 307.18 47.1541 302.706 46.2801C293.108 45.0492 285.754 38.0723 285.754 29.6499C285.754 20.6867 294.082 13.3607 304.581 12.8548C308.342 5.71597 315.954 0.833984 324.731 0.833984C333.516 0.833984 341.133 5.72472 344.891 12.874Z" fill="#D2DEEF"/>
</mask>
<g mask="url(#mask1_1_6434)">
<line x1="319.642" y1="100.904" x2="275.621" y2="7.24477" stroke="#3782ED" stroke-width="0.723061"/>
<line x1="324.223" y1="98.7512" x2="280.202" y2="5.09169" stroke="#3782ED" stroke-width="0.723061"/>
<line x1="328.803" y1="96.5984" x2="284.783" y2="2.93886" stroke="#3782ED" stroke-width="0.723061"/>
<line x1="333.384" y1="94.4453" x2="289.363" y2="0.785785" stroke="#3782ED" stroke-width="0.723061"/>
<line x1="337.964" y1="92.2925" x2="293.944" y2="-1.36705" stroke="#3782ED" stroke-width="0.723061"/>
<line x1="342.545" y1="90.1394" x2="298.525" y2="-3.52012" stroke="#3782ED" stroke-width="0.723061"/>
<line x1="347.126" y1="87.9865" x2="303.105" y2="-5.67296" stroke="#3782ED" stroke-width="0.723061"/>
<line x1="351.706" y1="85.8337" x2="307.686" y2="-7.82579" stroke="#3782ED" stroke-width="0.723061"/>
<line x1="356.288" y1="83.6806" x2="312.267" y2="-9.97886" stroke="#3782ED" stroke-width="0.723061"/>
<line x1="360.868" y1="81.5278" x2="316.847" y2="-12.1317" stroke="#3782ED" stroke-width="0.723061"/>
<line x1="365.449" y1="79.3747" x2="321.428" y2="-14.2848" stroke="#3782ED" stroke-width="0.723061"/>
<line x1="370.029" y1="77.2219" x2="326.009" y2="-16.4376" stroke="#3782ED" stroke-width="0.723061"/>
<line x1="374.61" y1="75.0688" x2="330.59" y2="-18.5907" stroke="#3782ED" stroke-width="0.723061"/>
<line x1="379.191" y1="72.9157" x2="335.17" y2="-20.7438" stroke="#3782ED" stroke-width="0.723061"/>
<line x1="383.771" y1="70.7632" x2="339.751" y2="-22.8963" stroke="#3782ED" stroke-width="0.723061"/>
</g>
</svg>
