<svg width="360" height="48" viewBox="0 0 360 48" fill="none" xmlns="http://www.w3.org/2000/svg">
<mask id="path-1-inside-1_1_5341" fill="white">
<path fill-rule="evenodd" clip-rule="evenodd" d="M56.135 12.8731C66.4708 13.5208 74.6174 20.7841 74.6174 29.6489C74.6174 38.4908 66.5129 45.7395 56.2152 46.4195C51.937 47.2232 45.4822 47.4172 35.9757 46.805C25.4 47.3988 18.4122 47.153 13.9385 46.277C4.34689 45.0414 -3 38.0672 -3 29.6487C-3 20.6858 5.32805 13.3599 15.8265 12.8539C19.5877 5.71558 27.1988 0.833984 35.9757 0.833984C44.7605 0.833984 52.3774 5.72435 56.135 12.8731Z"/>
</mask>
<path d="M56.135 12.8731L55.4752 13.2199L55.6702 13.5908L56.0884 13.617L56.135 12.8731ZM56.2152 46.4195L56.1661 45.6758L56.1215 45.6787L56.0776 45.687L56.2152 46.4195ZM35.9757 46.805L36.0236 46.0612L35.9788 46.0583L35.9339 46.0608L35.9757 46.805ZM13.9385 46.277L14.0818 45.5455L14.0579 45.5409L14.0338 45.5378L13.9385 46.277ZM15.8265 12.8539L15.8624 13.5984L16.2876 13.5779L16.486 13.2014L15.8265 12.8539ZM56.0884 13.617C66.1482 14.2474 73.872 21.2849 73.872 29.6489H75.3628C75.3628 20.2833 66.7933 12.7942 56.1816 12.1293L56.0884 13.617ZM73.872 29.6489C73.872 37.9914 66.1884 45.0139 56.1661 45.6758L56.2643 47.1632C66.8374 46.465 75.3628 38.9902 75.3628 29.6489H73.872ZM56.0776 45.687C51.8929 46.4731 45.513 46.6723 36.0236 46.0612L35.9278 47.5488C45.4513 48.1621 51.981 47.9734 56.3528 47.1521L56.0776 45.687ZM35.9339 46.0608C25.3711 46.6539 18.4601 46.4029 14.0818 45.5455L13.7953 47.0085C18.3642 47.9031 25.4288 48.1437 36.0175 47.5492L35.9339 46.0608ZM14.0338 45.5378C4.70661 44.3362 -2.25465 37.5934 -2.25465 29.6487H-3.74535C-3.74535 38.541 3.98718 45.7466 13.8433 47.0163L14.0338 45.5378ZM-2.25465 29.6487C-2.25465 21.1925 5.64227 14.091 15.8624 13.5984L15.7907 12.1094C5.01383 12.6289 -3.74535 20.179 -3.74535 29.6487H-2.25465ZM16.486 13.2014C20.1203 6.30366 27.48 1.57934 35.9757 1.57934V0.0886311C26.9176 0.0886311 19.0551 5.12749 15.1671 12.5065L16.486 13.2014ZM35.9757 1.57934C44.4791 1.57934 51.8443 6.31215 55.4752 13.2199L56.7948 12.5264C52.9105 5.13654 45.042 0.0886311 35.9757 0.0886311V1.57934Z" fill="white" mask="url(#path-1-inside-1_1_5341)"/>
<mask id="mask0_1_5341" style="mask-type:alpha" maskUnits="userSpaceOnUse" x="93" y="0" width="78" height="48">
<path fill-rule="evenodd" clip-rule="evenodd" d="M152.388 12.874C162.724 13.5222 170.869 20.7854 170.869 29.6499C170.869 38.4927 162.763 45.742 152.464 46.4209C148.186 47.224 141.732 47.4176 132.228 46.8056C121.662 47.3988 114.678 47.1541 110.204 46.2801C100.605 45.0492 93.2515 38.0723 93.2515 29.6499C93.2515 20.6867 101.58 13.3607 112.079 12.8548C115.84 5.71597 123.451 0.833984 132.228 0.833984C141.014 0.833984 148.631 5.72472 152.388 12.874Z" fill="#D2DEEF"/>
</mask>
<g mask="url(#mask0_1_5341)">
<line x1="127.14" y1="100.904" x2="83.119" y2="7.24428" stroke="white" stroke-width="0.723061"/>
<line x1="131.721" y1="98.7505" x2="87.7" y2="5.09096" stroke="white" stroke-width="0.723061"/>
<line x1="136.301" y1="96.5981" x2="92.2806" y2="2.93862" stroke="white" stroke-width="0.723061"/>
<line x1="140.882" y1="94.4448" x2="96.8612" y2="0.785297" stroke="white" stroke-width="0.723061"/>
<line x1="145.462" y1="92.2925" x2="101.442" y2="-1.36705" stroke="white" stroke-width="0.723061"/>
<line x1="150.043" y1="90.1391" x2="106.023" y2="-3.52037" stroke="white" stroke-width="0.723061"/>
<line x1="154.624" y1="87.9868" x2="110.603" y2="-5.67271" stroke="white" stroke-width="0.723061"/>
<line x1="159.205" y1="85.8335" x2="115.184" y2="-7.82603" stroke="white" stroke-width="0.723061"/>
<line x1="163.786" y1="83.6802" x2="119.765" y2="-9.97935" stroke="white" stroke-width="0.723061"/>
<line x1="168.366" y1="81.5278" x2="124.346" y2="-12.1317" stroke="white" stroke-width="0.723061"/>
<line x1="172.947" y1="79.3745" x2="128.926" y2="-14.285" stroke="white" stroke-width="0.723061"/>
<line x1="177.527" y1="77.2221" x2="133.507" y2="-16.4374" stroke="white" stroke-width="0.723061"/>
<line x1="182.108" y1="75.0688" x2="138.088" y2="-18.5907" stroke="white" stroke-width="0.723061"/>
<line x1="186.689" y1="72.9155" x2="142.668" y2="-20.744" stroke="white" stroke-width="0.723061"/>
<line x1="191.269" y1="70.7632" x2="147.249" y2="-22.8963" stroke="white" stroke-width="0.723061"/>
</g>
<mask id="path-19-inside-2_1_5341" fill="white">
<path fill-rule="evenodd" clip-rule="evenodd" d="M248.638 12.873C258.973 13.5207 267.12 20.784 267.12 29.6487C267.12 38.4901 259.016 45.7384 248.72 46.4192C244.441 47.2232 237.986 47.4173 228.479 46.805C217.903 47.3988 210.915 47.153 206.441 46.277C196.85 45.0414 189.503 38.0672 189.503 29.6487C189.503 20.6858 197.831 13.3599 208.329 12.8539C212.091 5.71558 219.702 0.833984 228.479 0.833984C237.263 0.833984 244.88 5.72428 248.638 12.873Z"/>
</mask>
<path d="M248.638 12.873L247.978 13.2198L248.173 13.5907L248.591 13.6169L248.638 12.873ZM248.72 46.4192L248.67 45.6755L248.626 45.6784L248.582 45.6867L248.72 46.4192ZM228.479 46.805L228.527 46.0612L228.482 46.0583L228.437 46.0608L228.479 46.805ZM206.441 46.277L206.585 45.5455L206.561 45.5409L206.537 45.5378L206.441 46.277ZM208.329 12.8539L208.365 13.5984L208.79 13.5779L208.989 13.2014L208.329 12.8539ZM248.591 13.6169C258.651 14.2473 266.375 21.2848 266.375 29.6487H267.865C267.865 20.2832 259.296 12.7941 248.684 12.1291L248.591 13.6169ZM266.375 29.6487C266.375 37.9907 258.692 45.0129 248.67 45.6755L248.769 47.163C259.341 46.4639 267.865 38.9895 267.865 29.6487H266.375ZM248.582 45.6867C244.397 46.4731 238.017 46.6724 228.527 46.0612L228.431 47.5488C237.955 48.1622 244.486 47.9733 248.857 47.1518L248.582 45.6867ZM228.437 46.0608C217.874 46.6539 210.963 46.4029 206.585 45.5455L206.298 47.0085C210.867 47.9031 217.932 48.1437 228.52 47.5492L228.437 46.0608ZM206.537 45.5378C197.21 44.3362 190.248 37.5934 190.248 29.6487H188.758C188.758 38.541 196.49 45.7466 206.346 47.0163L206.537 45.5378ZM190.248 29.6487C190.248 21.1925 198.145 14.091 208.365 13.5984L208.294 12.1094C197.517 12.6289 188.758 20.179 188.758 29.6487H190.248ZM208.989 13.2014C212.623 6.30366 219.983 1.57934 228.479 1.57934V0.0886311C219.421 0.0886311 211.558 5.12749 207.67 12.5065L208.989 13.2014ZM228.479 1.57934C236.982 1.57934 244.347 6.31209 247.978 13.2198L249.298 12.5262C245.413 5.13647 237.545 0.0886311 228.479 0.0886311V1.57934Z" fill="white" mask="url(#path-19-inside-2_1_5341)"/>
<mask id="mask1_1_5341" style="mask-type:alpha" maskUnits="userSpaceOnUse" x="285" y="0" width="79" height="48">
<path fill-rule="evenodd" clip-rule="evenodd" d="M344.891 12.874C355.226 13.5222 363.372 20.7854 363.372 29.6499C363.372 38.4927 355.266 45.742 344.967 46.4209C340.688 47.224 334.234 47.4176 324.731 46.8056C314.165 47.3988 307.18 47.1541 302.706 46.2801C293.108 45.0492 285.754 38.0723 285.754 29.6499C285.754 20.6867 294.082 13.3607 304.581 12.8548C308.342 5.71597 315.954 0.833984 324.731 0.833984C333.516 0.833984 341.133 5.72472 344.891 12.874Z" fill="#D2DEEF"/>
</mask>
<g mask="url(#mask1_1_5341)">
<line x1="319.642" y1="100.904" x2="275.621" y2="7.24428" stroke="white" stroke-width="0.723061"/>
<line x1="324.223" y1="98.7505" x2="280.202" y2="5.09096" stroke="white" stroke-width="0.723061"/>
<line x1="328.803" y1="96.5981" x2="284.783" y2="2.93862" stroke="white" stroke-width="0.723061"/>
<line x1="333.384" y1="94.4448" x2="289.363" y2="0.785297" stroke="white" stroke-width="0.723061"/>
<line x1="337.964" y1="92.2925" x2="293.944" y2="-1.36705" stroke="white" stroke-width="0.723061"/>
<line x1="342.545" y1="90.1391" x2="298.525" y2="-3.52037" stroke="white" stroke-width="0.723061"/>
<line x1="347.126" y1="87.9868" x2="303.105" y2="-5.67271" stroke="white" stroke-width="0.723061"/>
<line x1="351.706" y1="85.8335" x2="307.686" y2="-7.82603" stroke="white" stroke-width="0.723061"/>
<line x1="356.288" y1="83.6802" x2="312.267" y2="-9.97935" stroke="white" stroke-width="0.723061"/>
<line x1="360.868" y1="81.5278" x2="316.847" y2="-12.1317" stroke="white" stroke-width="0.723061"/>
<line x1="365.449" y1="79.3745" x2="321.428" y2="-14.285" stroke="white" stroke-width="0.723061"/>
<line x1="370.029" y1="77.2221" x2="326.009" y2="-16.4374" stroke="white" stroke-width="0.723061"/>
<line x1="374.61" y1="75.0688" x2="330.59" y2="-18.5907" stroke="white" stroke-width="0.723061"/>
<line x1="379.191" y1="72.9155" x2="335.17" y2="-20.744" stroke="white" stroke-width="0.723061"/>
<line x1="383.771" y1="70.7632" x2="339.751" y2="-22.8963" stroke="white" stroke-width="0.723061"/>
</g>
</svg>
