<svg width="241" height="100" viewBox="0 0 241 100" fill="none" xmlns="http://www.w3.org/2000/svg">
<g filter="url(#filter0_d_118_7768)">
<mask id="path-1-outside-1_118_7768" maskUnits="userSpaceOnUse" x="5" y="14" width="231" height="72" fill="black">
<rect fill="white" x="5" y="14" width="231" height="72"/>
<path d="M31.38 50.62C31.38 52.16 31.3333 53.8167 31.24 55.59C31.1933 57.3167 31.1233 59.0667 31.03 60.84C30.9367 62.6133 30.82 64.3633 30.68 66.09C30.54 67.8167 30.4 69.4267 30.26 70.92C30.12 72.2267 29.84 73.44 29.42 74.56C29 75.7267 28.3933 76.73 27.6 77.57C26.8533 78.41 25.92 79.0633 24.8 79.53C23.7267 80.0433 22.4667 80.3 21.02 80.3C19.5267 80.3 18.22 80.0433 17.1 79.53C16.0267 79.0633 15.0933 78.41 14.3 77.57C13.5533 76.73 12.97 75.7267 12.55 74.56C12.13 73.44 11.85 72.2267 11.71 70.92C11.01 64.2467 10.66 57.3867 10.66 50.34C10.66 43.2933 11.01 36.4333 11.71 29.76C11.85 28.4533 12.13 27.24 12.55 26.12C12.97 25 13.5533 24.02 14.3 23.18C15.0933 22.34 16.0267 21.6867 17.1 21.22C18.22 20.7067 19.5267 20.45 21.02 20.45C22.7 20.45 24.1233 20.7533 25.29 21.36C26.5033 21.9667 27.5067 22.8067 28.3 23.88C29.8867 25.9333 31.2867 28.1267 32.5 30.46C33.76 32.7467 34.9733 35.1033 36.14 37.53C37.3067 39.91 38.45 42.3133 39.57 44.74C40.7367 47.1667 41.9967 49.5 43.35 51.74C43.49 52.02 43.6533 52.2067 43.84 52.3C44.0733 52.3933 44.26 52.3933 44.4 52.3C44.5867 52.16 44.7033 51.9733 44.75 51.74C44.8433 51.5067 44.7967 51.2267 44.61 50.9C43.8633 49.4067 43.1867 48.1 42.58 46.98C41.9733 45.8133 41.2967 44.5533 40.55 43.2C40.6433 40.8667 40.76 38.5333 40.9 36.2C41.04 33.82 41.2033 31.6733 41.39 29.76C41.5767 28.4533 41.88 27.24 42.3 26.12C42.7667 25 43.3733 24.02 44.12 23.18C44.9133 22.34 45.8467 21.6867 46.92 21.22C47.9933 20.7067 49.2767 20.45 50.77 20.45C52.2167 20.45 53.4767 20.7067 54.55 21.22C55.67 21.6867 56.6033 22.34 57.35 23.18C58.1433 24.02 58.75 25 59.17 26.12C59.6367 27.24 59.9633 28.4533 60.15 29.76C60.8033 36.4333 61.13 43.2933 61.13 50.34C61.13 57.3867 60.8033 64.2467 60.15 70.92C59.9633 72.2267 59.6367 73.44 59.17 74.56C58.75 75.7267 58.1433 76.73 57.35 77.57C56.6033 78.41 55.67 79.0633 54.55 79.53C53.4767 80.0433 52.2167 80.3 50.77 80.3C48.7167 80.3 47.0367 79.8333 45.73 78.9C44.47 77.9667 43.4433 76.7767 42.65 75.33C41.7167 73.7433 40.8067 71.9 39.92 69.8C39.0333 67.7 38.1233 65.53 37.19 63.29C36.3033 61.05 35.37 58.8333 34.39 56.64C33.41 54.4467 32.4067 52.44 31.38 50.62ZM91.5696 80.86C86.6229 80.86 82.5163 80.09 79.2496 78.55C76.0296 77.01 73.4629 74.8867 71.5496 72.18C69.6829 69.4733 68.3763 66.3233 67.6296 62.73C66.8829 59.09 66.5096 55.17 66.5096 50.97C66.5096 47.33 66.5329 43.6667 66.5796 39.98C66.6729 36.2467 66.7896 32.63 66.9296 29.13C67.1163 26.47 68.0963 24.37 69.8696 22.83C71.6429 21.2433 73.8829 20.45 76.5896 20.45C79.2963 20.45 81.5363 21.2433 83.3096 22.83C85.1296 24.37 86.1096 26.47 86.2496 29.13C86.4363 32.63 86.5529 36.2467 86.5996 39.98C86.6929 43.6667 86.7396 47.33 86.7396 50.97C86.7396 51.9967 86.7863 52.9533 86.8796 53.84C87.0196 54.7267 87.2529 55.52 87.5796 56.22C87.9063 56.8733 88.3729 57.3867 88.9796 57.76C89.6329 58.1333 90.4963 58.32 91.5696 58.32C92.5963 58.32 93.4363 58.1333 94.0896 57.76C94.7429 57.3867 95.2329 56.8733 95.5596 56.22C95.8863 55.52 96.0963 54.7267 96.1896 53.84C96.3296 52.9533 96.3996 51.9967 96.3996 50.97C96.3996 47.33 96.4229 43.6667 96.4696 39.98C96.5629 36.2467 96.7029 32.63 96.8896 29.13C96.9363 27.8233 97.2163 26.6333 97.7296 25.56C98.2429 24.4867 98.9196 23.5767 99.7596 22.83C100.6 22.0367 101.58 21.4533 102.7 21.08C103.866 20.66 105.126 20.45 106.48 20.45C107.833 20.45 109.093 20.66 110.26 21.08C111.426 21.4533 112.43 22.0367 113.27 22.83C114.156 23.5767 114.856 24.4867 115.37 25.56C115.883 26.6333 116.163 27.8233 116.21 29.13C116.396 32.63 116.513 36.2467 116.56 39.98C116.653 43.6667 116.7 47.33 116.7 50.97C116.7 55.17 116.303 59.09 115.51 62.73C114.763 66.3233 113.433 69.4733 111.52 72.18C109.653 74.8867 107.086 77.01 103.82 78.55C100.6 80.09 96.5163 80.86 91.5696 80.86ZM149.107 80.79C144.534 80.79 140.521 79.9733 137.067 78.34C133.614 76.7533 130.721 74.5833 128.387 71.83C126.101 69.0767 124.351 65.8567 123.137 62.17C121.971 58.4367 121.387 54.47 121.387 50.27C121.387 46.07 121.854 42.1267 122.787 38.44C123.721 34.7533 125.284 31.5333 127.477 28.78C129.717 25.98 132.681 23.7867 136.367 22.2C140.101 20.5667 144.744 19.75 150.297 19.75C153.517 19.75 156.411 20.0067 158.977 20.52C161.591 21.0333 163.877 21.8267 165.837 22.9C167.284 23.6933 168.381 24.6733 169.127 25.84C169.874 26.96 170.317 28.1733 170.457 29.48C170.597 30.7867 170.481 32.14 170.107 33.54C169.734 34.8933 169.151 36.1767 168.357 37.39C167.657 38.4633 166.817 39.42 165.837 40.26C164.904 41.1 163.877 41.7533 162.757 42.22C161.637 42.6867 160.447 42.92 159.187 42.92C157.927 42.8733 156.644 42.5233 155.337 41.87C154.731 41.5433 154.007 41.2867 153.167 41.1C152.327 40.8667 151.371 40.75 150.297 40.75C148.617 40.75 147.194 41.0067 146.027 41.52C144.861 42.0333 143.904 42.7333 143.157 43.62C142.457 44.5067 141.921 45.5333 141.547 46.7C141.221 47.82 141.057 49.01 141.057 50.27C141.057 51.53 141.221 52.7433 141.547 53.91C141.874 55.03 142.364 56.0333 143.017 56.92C143.717 57.8067 144.581 58.5067 145.607 59.02C146.681 59.5333 147.917 59.79 149.317 59.79C149.924 59.79 150.554 59.7433 151.207 59.65C151.907 59.51 152.584 59.3467 153.237 59.16C153.891 58.9267 154.497 58.6933 155.057 58.46C155.664 58.2267 156.154 57.97 156.527 57.69C157.367 57.13 158.067 56.5933 158.627 56.08C159.234 55.52 159.794 54.89 160.307 54.19C160.494 53.91 160.564 53.6767 160.517 53.49C160.471 53.2567 160.377 53.0933 160.237 53C160.097 52.9067 159.911 52.8833 159.677 52.93C159.491 52.93 159.304 53.0467 159.117 53.28C158.744 53.84 158.231 54.4467 157.577 55.1C156.971 55.7067 156.271 56.15 155.477 56.43C154.217 56.8967 153.051 57.1067 151.977 57.06C150.904 56.9667 149.947 56.6867 149.107 56.22C148.314 55.7533 147.684 55.1233 147.217 54.33C146.797 53.49 146.587 52.5567 146.587 51.53C146.587 49.7567 147.077 48.4267 148.057 47.54C149.037 46.6067 150.531 46.0233 152.537 45.79C155.057 45.4633 157.601 45.3 160.167 45.3C162.781 45.3 165.324 45.58 167.797 46.14C168.917 46.42 169.944 46.8867 170.877 47.54C171.857 48.1933 172.697 48.9867 173.397 49.92C174.097 50.8067 174.634 51.8333 175.007 53C175.381 54.12 175.567 55.31 175.567 56.57C175.567 59.93 174.984 63.08 173.817 66.02C172.697 68.96 171.017 71.5267 168.777 73.72C166.584 75.9133 163.831 77.64 160.517 78.9C157.251 80.16 153.447 80.79 149.107 80.79ZM205.183 80.86C200.236 80.86 196.13 80.09 192.863 78.55C189.643 77.01 187.076 74.8867 185.163 72.18C183.296 69.4733 181.99 66.3233 181.243 62.73C180.496 59.09 180.123 55.17 180.123 50.97C180.123 47.33 180.146 43.6667 180.193 39.98C180.286 36.2467 180.403 32.63 180.543 29.13C180.73 26.47 181.71 24.37 183.483 22.83C185.256 21.2433 187.496 20.45 190.203 20.45C192.91 20.45 195.15 21.2433 196.923 22.83C198.743 24.37 199.723 26.47 199.863 29.13C200.05 32.63 200.166 36.2467 200.213 39.98C200.306 43.6667 200.353 47.33 200.353 50.97C200.353 51.9967 200.4 52.9533 200.493 53.84C200.633 54.7267 200.866 55.52 201.193 56.22C201.52 56.8733 201.986 57.3867 202.593 57.76C203.246 58.1333 204.11 58.32 205.183 58.32C206.21 58.32 207.05 58.1333 207.703 57.76C208.356 57.3867 208.846 56.8733 209.173 56.22C209.5 55.52 209.71 54.7267 209.803 53.84C209.943 52.9533 210.013 51.9967 210.013 50.97C210.013 47.33 210.036 43.6667 210.083 39.98C210.176 36.2467 210.316 32.63 210.503 29.13C210.55 27.8233 210.83 26.6333 211.343 25.56C211.856 24.4867 212.533 23.5767 213.373 22.83C214.213 22.0367 215.193 21.4533 216.313 21.08C217.48 20.66 218.74 20.45 220.093 20.45C221.446 20.45 222.706 20.66 223.873 21.08C225.04 21.4533 226.043 22.0367 226.883 22.83C227.77 23.5767 228.47 24.4867 228.983 25.56C229.496 26.6333 229.776 27.8233 229.823 29.13C230.01 32.63 230.126 36.2467 230.173 39.98C230.266 43.6667 230.313 47.33 230.313 50.97C230.313 55.17 229.916 59.09 229.123 62.73C228.376 66.3233 227.046 69.4733 225.133 72.18C223.266 74.8867 220.7 77.01 217.433 78.55C214.213 80.09 210.13 80.86 205.183 80.86Z"/>
</mask>
<path d="M31.38 50.62C31.38 52.16 31.3333 53.8167 31.24 55.59C31.1933 57.3167 31.1233 59.0667 31.03 60.84C30.9367 62.6133 30.82 64.3633 30.68 66.09C30.54 67.8167 30.4 69.4267 30.26 70.92C30.12 72.2267 29.84 73.44 29.42 74.56C29 75.7267 28.3933 76.73 27.6 77.57C26.8533 78.41 25.92 79.0633 24.8 79.53C23.7267 80.0433 22.4667 80.3 21.02 80.3C19.5267 80.3 18.22 80.0433 17.1 79.53C16.0267 79.0633 15.0933 78.41 14.3 77.57C13.5533 76.73 12.97 75.7267 12.55 74.56C12.13 73.44 11.85 72.2267 11.71 70.92C11.01 64.2467 10.66 57.3867 10.66 50.34C10.66 43.2933 11.01 36.4333 11.71 29.76C11.85 28.4533 12.13 27.24 12.55 26.12C12.97 25 13.5533 24.02 14.3 23.18C15.0933 22.34 16.0267 21.6867 17.1 21.22C18.22 20.7067 19.5267 20.45 21.02 20.45C22.7 20.45 24.1233 20.7533 25.29 21.36C26.5033 21.9667 27.5067 22.8067 28.3 23.88C29.8867 25.9333 31.2867 28.1267 32.5 30.46C33.76 32.7467 34.9733 35.1033 36.14 37.53C37.3067 39.91 38.45 42.3133 39.57 44.74C40.7367 47.1667 41.9967 49.5 43.35 51.74C43.49 52.02 43.6533 52.2067 43.84 52.3C44.0733 52.3933 44.26 52.3933 44.4 52.3C44.5867 52.16 44.7033 51.9733 44.75 51.74C44.8433 51.5067 44.7967 51.2267 44.61 50.9C43.8633 49.4067 43.1867 48.1 42.58 46.98C41.9733 45.8133 41.2967 44.5533 40.55 43.2C40.6433 40.8667 40.76 38.5333 40.9 36.2C41.04 33.82 41.2033 31.6733 41.39 29.76C41.5767 28.4533 41.88 27.24 42.3 26.12C42.7667 25 43.3733 24.02 44.12 23.18C44.9133 22.34 45.8467 21.6867 46.92 21.22C47.9933 20.7067 49.2767 20.45 50.77 20.45C52.2167 20.45 53.4767 20.7067 54.55 21.22C55.67 21.6867 56.6033 22.34 57.35 23.18C58.1433 24.02 58.75 25 59.17 26.12C59.6367 27.24 59.9633 28.4533 60.15 29.76C60.8033 36.4333 61.13 43.2933 61.13 50.34C61.13 57.3867 60.8033 64.2467 60.15 70.92C59.9633 72.2267 59.6367 73.44 59.17 74.56C58.75 75.7267 58.1433 76.73 57.35 77.57C56.6033 78.41 55.67 79.0633 54.55 79.53C53.4767 80.0433 52.2167 80.3 50.77 80.3C48.7167 80.3 47.0367 79.8333 45.73 78.9C44.47 77.9667 43.4433 76.7767 42.65 75.33C41.7167 73.7433 40.8067 71.9 39.92 69.8C39.0333 67.7 38.1233 65.53 37.19 63.29C36.3033 61.05 35.37 58.8333 34.39 56.64C33.41 54.4467 32.4067 52.44 31.38 50.62ZM91.5696 80.86C86.6229 80.86 82.5163 80.09 79.2496 78.55C76.0296 77.01 73.4629 74.8867 71.5496 72.18C69.6829 69.4733 68.3763 66.3233 67.6296 62.73C66.8829 59.09 66.5096 55.17 66.5096 50.97C66.5096 47.33 66.5329 43.6667 66.5796 39.98C66.6729 36.2467 66.7896 32.63 66.9296 29.13C67.1163 26.47 68.0963 24.37 69.8696 22.83C71.6429 21.2433 73.8829 20.45 76.5896 20.45C79.2963 20.45 81.5363 21.2433 83.3096 22.83C85.1296 24.37 86.1096 26.47 86.2496 29.13C86.4363 32.63 86.5529 36.2467 86.5996 39.98C86.6929 43.6667 86.7396 47.33 86.7396 50.97C86.7396 51.9967 86.7863 52.9533 86.8796 53.84C87.0196 54.7267 87.2529 55.52 87.5796 56.22C87.9063 56.8733 88.3729 57.3867 88.9796 57.76C89.6329 58.1333 90.4963 58.32 91.5696 58.32C92.5963 58.32 93.4363 58.1333 94.0896 57.76C94.7429 57.3867 95.2329 56.8733 95.5596 56.22C95.8863 55.52 96.0963 54.7267 96.1896 53.84C96.3296 52.9533 96.3996 51.9967 96.3996 50.97C96.3996 47.33 96.4229 43.6667 96.4696 39.98C96.5629 36.2467 96.7029 32.63 96.8896 29.13C96.9363 27.8233 97.2163 26.6333 97.7296 25.56C98.2429 24.4867 98.9196 23.5767 99.7596 22.83C100.6 22.0367 101.58 21.4533 102.7 21.08C103.866 20.66 105.126 20.45 106.48 20.45C107.833 20.45 109.093 20.66 110.26 21.08C111.426 21.4533 112.43 22.0367 113.27 22.83C114.156 23.5767 114.856 24.4867 115.37 25.56C115.883 26.6333 116.163 27.8233 116.21 29.13C116.396 32.63 116.513 36.2467 116.56 39.98C116.653 43.6667 116.7 47.33 116.7 50.97C116.7 55.17 116.303 59.09 115.51 62.73C114.763 66.3233 113.433 69.4733 111.52 72.18C109.653 74.8867 107.086 77.01 103.82 78.55C100.6 80.09 96.5163 80.86 91.5696 80.86ZM149.107 80.79C144.534 80.79 140.521 79.9733 137.067 78.34C133.614 76.7533 130.721 74.5833 128.387 71.83C126.101 69.0767 124.351 65.8567 123.137 62.17C121.971 58.4367 121.387 54.47 121.387 50.27C121.387 46.07 121.854 42.1267 122.787 38.44C123.721 34.7533 125.284 31.5333 127.477 28.78C129.717 25.98 132.681 23.7867 136.367 22.2C140.101 20.5667 144.744 19.75 150.297 19.75C153.517 19.75 156.411 20.0067 158.977 20.52C161.591 21.0333 163.877 21.8267 165.837 22.9C167.284 23.6933 168.381 24.6733 169.127 25.84C169.874 26.96 170.317 28.1733 170.457 29.48C170.597 30.7867 170.481 32.14 170.107 33.54C169.734 34.8933 169.151 36.1767 168.357 37.39C167.657 38.4633 166.817 39.42 165.837 40.26C164.904 41.1 163.877 41.7533 162.757 42.22C161.637 42.6867 160.447 42.92 159.187 42.92C157.927 42.8733 156.644 42.5233 155.337 41.87C154.731 41.5433 154.007 41.2867 153.167 41.1C152.327 40.8667 151.371 40.75 150.297 40.75C148.617 40.75 147.194 41.0067 146.027 41.52C144.861 42.0333 143.904 42.7333 143.157 43.62C142.457 44.5067 141.921 45.5333 141.547 46.7C141.221 47.82 141.057 49.01 141.057 50.27C141.057 51.53 141.221 52.7433 141.547 53.91C141.874 55.03 142.364 56.0333 143.017 56.92C143.717 57.8067 144.581 58.5067 145.607 59.02C146.681 59.5333 147.917 59.79 149.317 59.79C149.924 59.79 150.554 59.7433 151.207 59.65C151.907 59.51 152.584 59.3467 153.237 59.16C153.891 58.9267 154.497 58.6933 155.057 58.46C155.664 58.2267 156.154 57.97 156.527 57.69C157.367 57.13 158.067 56.5933 158.627 56.08C159.234 55.52 159.794 54.89 160.307 54.19C160.494 53.91 160.564 53.6767 160.517 53.49C160.471 53.2567 160.377 53.0933 160.237 53C160.097 52.9067 159.911 52.8833 159.677 52.93C159.491 52.93 159.304 53.0467 159.117 53.28C158.744 53.84 158.231 54.4467 157.577 55.1C156.971 55.7067 156.271 56.15 155.477 56.43C154.217 56.8967 153.051 57.1067 151.977 57.06C150.904 56.9667 149.947 56.6867 149.107 56.22C148.314 55.7533 147.684 55.1233 147.217 54.33C146.797 53.49 146.587 52.5567 146.587 51.53C146.587 49.7567 147.077 48.4267 148.057 47.54C149.037 46.6067 150.531 46.0233 152.537 45.79C155.057 45.4633 157.601 45.3 160.167 45.3C162.781 45.3 165.324 45.58 167.797 46.14C168.917 46.42 169.944 46.8867 170.877 47.54C171.857 48.1933 172.697 48.9867 173.397 49.92C174.097 50.8067 174.634 51.8333 175.007 53C175.381 54.12 175.567 55.31 175.567 56.57C175.567 59.93 174.984 63.08 173.817 66.02C172.697 68.96 171.017 71.5267 168.777 73.72C166.584 75.9133 163.831 77.64 160.517 78.9C157.251 80.16 153.447 80.79 149.107 80.79ZM205.183 80.86C200.236 80.86 196.13 80.09 192.863 78.55C189.643 77.01 187.076 74.8867 185.163 72.18C183.296 69.4733 181.99 66.3233 181.243 62.73C180.496 59.09 180.123 55.17 180.123 50.97C180.123 47.33 180.146 43.6667 180.193 39.98C180.286 36.2467 180.403 32.63 180.543 29.13C180.73 26.47 181.71 24.37 183.483 22.83C185.256 21.2433 187.496 20.45 190.203 20.45C192.91 20.45 195.15 21.2433 196.923 22.83C198.743 24.37 199.723 26.47 199.863 29.13C200.05 32.63 200.166 36.2467 200.213 39.98C200.306 43.6667 200.353 47.33 200.353 50.97C200.353 51.9967 200.4 52.9533 200.493 53.84C200.633 54.7267 200.866 55.52 201.193 56.22C201.52 56.8733 201.986 57.3867 202.593 57.76C203.246 58.1333 204.11 58.32 205.183 58.32C206.21 58.32 207.05 58.1333 207.703 57.76C208.356 57.3867 208.846 56.8733 209.173 56.22C209.5 55.52 209.71 54.7267 209.803 53.84C209.943 52.9533 210.013 51.9967 210.013 50.97C210.013 47.33 210.036 43.6667 210.083 39.98C210.176 36.2467 210.316 32.63 210.503 29.13C210.55 27.8233 210.83 26.6333 211.343 25.56C211.856 24.4867 212.533 23.5767 213.373 22.83C214.213 22.0367 215.193 21.4533 216.313 21.08C217.48 20.66 218.74 20.45 220.093 20.45C221.446 20.45 222.706 20.66 223.873 21.08C225.04 21.4533 226.043 22.0367 226.883 22.83C227.77 23.5767 228.47 24.4867 228.983 25.56C229.496 26.6333 229.776 27.8233 229.823 29.13C230.01 32.63 230.126 36.2467 230.173 39.98C230.266 43.6667 230.313 47.33 230.313 50.97C230.313 55.17 229.916 59.09 229.123 62.73C228.376 66.3233 227.046 69.4733 225.133 72.18C223.266 74.8867 220.7 77.01 217.433 78.55C214.213 80.09 210.13 80.86 205.183 80.86Z" fill="#3782ED"/>
<path d="M31.38 50.62L35.7349 48.1634L26.38 31.5797V50.62H31.38ZM31.24 55.59L26.2469 55.3272L26.2436 55.391L26.2418 55.4549L31.24 55.59ZM30.68 66.09L25.6964 65.6859H25.6964L30.68 66.09ZM30.26 70.92L35.2315 71.4527L35.2351 71.4197L35.2382 71.3867L30.26 70.92ZM29.42 74.56L24.7384 72.8044L24.7268 72.8353L24.7156 72.8664L29.42 74.56ZM27.6 77.57L23.9649 74.1369L23.9131 74.1918L23.863 74.2482L27.6 77.57ZM24.8 79.53L22.8769 74.9146L22.7585 74.964L22.6427 75.0193L24.8 79.53ZM17.1 79.53L19.1833 74.9847L19.1386 74.9642L19.0936 74.9446L17.1 79.53ZM14.3 77.57L10.563 80.8918L10.6131 80.9482L10.6649 81.0031L14.3 77.57ZM12.55 74.56L17.2544 72.8664L17.2432 72.8353L17.2316 72.8044L12.55 74.56ZM11.71 70.92L6.73727 71.4416L6.73845 71.4527L11.71 70.92ZM11.71 29.76L6.73844 29.2273L6.73728 29.2384L11.71 29.76ZM12.55 26.12L17.2316 27.8756L17.2316 27.8756L12.55 26.12ZM14.3 23.18L10.6649 19.7469L10.6131 19.8018L10.563 19.8582L14.3 23.18ZM17.1 21.22L19.0936 25.8054L19.1387 25.7858L19.1833 25.7653L17.1 21.22ZM25.29 21.36L22.9832 25.7961L23.0184 25.8144L23.0539 25.8321L25.29 21.36ZM28.3 23.88L24.2791 26.852L24.3109 26.8949L24.3436 26.9372L28.3 23.88ZM32.5 30.46L28.0639 32.7668L28.0917 32.8202L28.1208 32.873L32.5 30.46ZM36.14 37.53L31.6337 39.6965L31.642 39.7137L31.6504 39.7308L36.14 37.53ZM39.57 44.74L35.0302 46.8353L35.0467 46.871L35.0637 46.9065L39.57 44.74ZM43.35 51.74L47.8221 49.5039L47.7328 49.3253L47.6296 49.1544L43.35 51.74ZM43.84 52.3L41.6039 56.7721L41.79 56.8652L41.9831 56.9424L43.84 52.3ZM44.4 52.3L47.1735 56.4603L47.289 56.3833L47.4 56.3L44.4 52.3ZM44.75 51.74L40.1076 49.8831L39.9371 50.3093L39.8471 50.7594L44.75 51.74ZM44.61 50.9L40.1379 53.1361L40.1999 53.2602L40.2688 53.3807L44.61 50.9ZM42.58 46.98L38.1439 49.2868L38.1634 49.3243L38.1835 49.3614L42.58 46.98ZM40.55 43.2L35.554 43.0002L35.4982 44.394L36.1721 45.6154L40.55 43.2ZM40.9 36.2L45.891 36.4995L45.8914 36.4936L40.9 36.2ZM41.39 29.76L36.4403 29.0529L36.4245 29.1634L36.4136 29.2745L41.39 29.76ZM42.3 26.12L37.6846 24.1969L37.65 24.2801L37.6184 24.3644L42.3 26.12ZM44.12 23.18L40.4849 19.7469L40.4331 19.8018L40.383 19.8582L44.12 23.18ZM46.92 21.22L48.9136 25.8054L48.9961 25.7695L49.0773 25.7307L46.92 21.22ZM54.55 21.22L52.3927 25.7307L52.5085 25.786L52.6269 25.8354L54.55 21.22ZM57.35 23.18L53.613 26.5018L53.6631 26.5582L53.7149 26.6131L57.35 23.18ZM59.17 26.12L54.4883 27.8756L54.52 27.9599L54.5546 28.0431L59.17 26.12ZM60.15 29.76L65.1262 29.2728L65.1154 29.1626L65.0998 29.0529L60.15 29.76ZM60.15 70.92L65.0998 71.6271L65.1154 71.5174L65.1262 71.4072L60.15 70.92ZM59.17 74.56L54.5546 72.6369L54.5073 72.7506L54.4656 72.8664L59.17 74.56ZM57.35 77.57L53.7149 74.1369L53.6631 74.1918L53.613 74.2482L57.35 77.57ZM54.55 79.53L52.6269 74.9146L52.5085 74.964L52.3927 75.0193L54.55 79.53ZM45.73 78.9L42.7539 82.9178L42.7886 82.9435L42.8238 82.9687L45.73 78.9ZM42.65 75.33L47.0341 72.9258L46.9979 72.8598L46.9597 72.7949L42.65 75.33ZM39.92 69.8L44.5262 67.8551L39.92 69.8ZM37.19 63.29L32.541 65.1302L32.5574 65.1718L32.5746 65.2131L37.19 63.29ZM34.39 56.64L29.825 58.6797V58.6797L34.39 56.64ZM26.38 50.62C26.38 52.0603 26.3363 53.6285 26.2469 55.3272L36.2331 55.8528C36.3304 54.0048 36.38 52.2597 36.38 50.62H26.38ZM26.2418 55.4549C26.1963 57.1378 26.1281 58.8452 26.0369 60.5772L36.0231 61.1028C36.1186 59.2881 36.1903 57.4955 36.2382 55.7251L26.2418 55.4549ZM26.0369 60.5772C25.946 62.3046 25.8324 64.0075 25.6964 65.6859L35.6636 66.4941C35.8076 64.7192 35.9273 62.9221 36.0231 61.1028L26.0369 60.5772ZM25.6964 65.6859C25.5578 67.3948 25.4196 68.9837 25.2818 70.4533L35.2382 71.3867C35.3804 69.8696 35.5222 68.2385 35.6636 66.4941L25.6964 65.6859ZM25.2885 70.3873C25.1889 71.3165 24.9969 72.1148 24.7384 72.8044L34.1016 76.3156C34.6831 74.7652 35.0511 73.1368 35.2315 71.4527L25.2885 70.3873ZM24.7156 72.8664C24.5113 73.4338 24.2521 73.8328 23.9649 74.1369L31.2351 81.0031C32.5345 79.6272 33.4887 78.0195 34.1244 76.2536L24.7156 72.8664ZM23.863 74.2482C23.6549 74.4822 23.3589 74.7138 22.8769 74.9146L26.7231 84.1454C28.4811 83.4129 30.0517 82.3378 31.337 80.8918L23.863 74.2482ZM22.6427 75.0193C22.3726 75.1485 21.8785 75.3 21.02 75.3V85.3C23.0549 85.3 25.0808 84.9381 26.9573 84.0407L22.6427 75.0193ZM21.02 75.3C20.0961 75.3 19.5261 75.1418 19.1833 74.9847L15.0167 84.0753C16.9139 84.9449 18.9572 85.3 21.02 85.3V75.3ZM19.0936 74.9446C18.6314 74.7437 18.2585 74.4794 17.9351 74.1369L10.6649 81.0031C11.9281 82.3406 13.4219 83.383 15.1064 84.1153L19.0936 74.9446ZM18.037 74.2482C17.7553 73.9312 17.481 73.4956 17.2544 72.8664L7.84556 76.2536C8.45904 77.9577 9.35136 79.5288 10.563 80.8918L18.037 74.2482ZM17.2316 72.8044C16.9731 72.1148 16.7811 71.3165 16.6815 70.3873L6.73845 71.4527C6.9189 73.1368 7.28695 74.7652 7.86835 76.3156L17.2316 72.8044ZM16.6827 70.3984C16.0018 63.9067 15.66 57.2211 15.66 50.34H5.66C5.66 57.5522 6.01823 64.5866 6.73728 71.4416L16.6827 70.3984ZM15.66 50.34C15.66 43.4589 16.0018 36.7733 16.6827 30.2816L6.73728 29.2384C6.01823 36.0934 5.66 43.1278 5.66 50.34H15.66ZM16.6815 30.2927C16.7811 29.3635 16.9731 28.5652 17.2316 27.8756L7.86835 24.3644C7.28695 25.9148 6.9189 27.5432 6.73845 29.2273L16.6815 30.2927ZM17.2316 27.8756C17.4498 27.294 17.7246 26.8534 18.037 26.5018L10.563 19.8582C9.3821 21.1866 8.49023 22.706 7.86835 24.3644L17.2316 27.8756ZM17.9351 26.6131C18.2585 26.2706 18.6314 26.0063 19.0936 25.8054L15.1064 16.6346C13.4219 17.367 11.9281 18.4094 10.6649 19.7469L17.9351 26.6131ZM19.1833 25.7653C19.5261 25.6082 20.0961 25.45 21.02 25.45V15.45C18.9572 15.45 16.9139 15.8051 15.0167 16.6747L19.1833 25.7653ZM21.02 25.45C22.1138 25.45 22.6993 25.6485 22.9832 25.7961L27.5968 16.9239C25.5473 15.8582 23.2862 15.45 21.02 15.45V25.45ZM23.0539 25.8321C23.5744 26.0924 23.9621 26.423 24.2791 26.852L32.3209 20.908C31.0512 19.1903 29.4323 17.841 27.5261 16.8879L23.0539 25.8321ZM24.3436 26.9372C25.7459 28.752 26.986 30.6938 28.0639 32.7668L36.9361 28.1532C35.5874 25.5595 34.0274 23.1146 32.2564 20.8228L24.3436 26.9372ZM28.1208 32.873C29.3348 35.0762 30.5059 37.3506 31.6337 39.6965L40.6463 35.3635C39.4408 32.8561 38.1852 30.4171 36.8792 28.047L28.1208 32.873ZM31.6504 39.7308C32.7998 42.0755 33.9264 44.4437 35.0302 46.8353L44.1098 42.6447C42.9736 40.183 41.8136 37.7445 40.6296 35.3292L31.6504 39.7308ZM35.0637 46.9065C36.2973 49.4723 37.6326 51.9457 39.0704 54.3256L47.6296 49.1544C46.3607 47.0543 45.176 44.8611 44.0763 42.5735L35.0637 46.9065ZM38.8779 53.9761C39.2718 54.7638 40.0733 56.0068 41.6039 56.7721L46.0761 47.8279C47.2334 48.4065 47.7082 49.2761 47.8221 49.5039L38.8779 53.9761ZM41.9831 56.9424C42.9493 57.3289 45.0785 57.8569 47.1735 56.4603L41.6265 48.1397C43.4415 46.9298 45.1973 47.4578 45.6969 47.6576L41.9831 56.9424ZM47.4 56.3C48.5921 55.4059 49.3703 54.1339 49.6529 52.7206L39.8471 50.7594C39.9325 50.3323 40.1009 49.8636 40.3875 49.405C40.675 48.945 41.0302 48.5773 41.4 48.3L47.4 56.3ZM49.3924 53.5969C50.2891 51.3551 49.5083 49.3941 48.9512 48.4193L40.2688 53.3807C40.0851 53.0592 39.3976 51.6582 40.1076 49.8831L49.3924 53.5969ZM49.0821 48.6639C48.3181 47.1358 47.6157 45.7787 46.9765 44.5986L38.1835 49.3614C38.7577 50.4213 39.4086 51.6776 40.1379 53.1361L49.0821 48.6639ZM47.0161 44.6732C46.3875 43.4645 45.6911 42.1679 44.9279 40.7846L36.1721 45.6154C36.9023 46.9388 37.5591 48.1622 38.1439 49.2868L47.0161 44.6732ZM45.546 43.3998C45.638 41.0998 45.753 38.7996 45.891 36.4995L35.909 35.9005C35.767 38.267 35.6487 40.6336 35.554 43.0002L45.546 43.3998ZM45.8914 36.4936C46.0285 34.1632 46.1872 32.082 46.3664 30.2455L36.4136 29.2745C36.2195 31.2647 36.0515 33.4768 35.9086 35.9064L45.8914 36.4936ZM46.3397 30.4671C46.4805 29.4822 46.701 28.624 46.9816 27.8756L37.6184 24.3644C37.059 25.856 36.6729 27.4245 36.4403 29.0529L46.3397 30.4671ZM46.9154 28.0431C47.1858 27.394 47.5069 26.8957 47.857 26.5018L40.383 19.8582C39.2398 21.1443 38.3475 22.606 37.6846 24.1969L46.9154 28.0431ZM47.7551 26.6131C48.0785 26.2706 48.4514 26.0063 48.9136 25.8054L44.9264 16.6346C43.242 17.367 41.7481 18.4094 40.4849 19.7469L47.7551 26.6131ZM49.0773 25.7307C49.3278 25.6108 49.838 25.45 50.77 25.45V15.45C48.7154 15.45 46.6589 15.8025 44.7627 16.7093L49.0773 25.7307ZM50.77 25.45C51.6285 25.45 52.1226 25.6015 52.3927 25.7307L56.7073 16.7093C54.8308 15.8119 52.8049 15.45 50.77 15.45V25.45ZM52.6269 25.8354C53.1089 26.0362 53.4049 26.2678 53.613 26.5018L61.087 19.8582C59.8017 18.4122 58.2311 17.3371 56.4731 16.6046L52.6269 25.8354ZM53.7149 26.6131C54.035 26.9521 54.2937 27.3564 54.4883 27.8756L63.8517 24.3644C63.2063 22.6436 62.2516 21.0879 60.9851 19.7469L53.7149 26.6131ZM54.5546 28.0431C54.8454 28.741 55.0681 29.5419 55.2003 30.4671L65.0998 29.0529C64.8586 27.3647 64.4279 25.739 63.7854 24.1969L54.5546 28.0431ZM55.1738 30.2472C55.8105 36.7506 56.13 43.4478 56.13 50.34H66.13C66.13 43.1388 65.7962 36.116 65.1262 29.2728L55.1738 30.2472ZM56.13 50.34C56.13 57.2322 55.8105 63.9293 55.1738 70.4328L65.1262 71.4072C65.7962 64.564 66.13 57.5412 66.13 50.34H56.13ZM55.2003 70.2129C55.0681 71.1381 54.8454 71.939 54.5546 72.6369L63.7854 76.4831C64.4279 74.941 64.8586 73.3153 65.0998 71.6271L55.2003 70.2129ZM54.4656 72.8664C54.2613 73.4339 54.0021 73.8328 53.7149 74.1369L60.9851 81.0031C62.2845 79.6272 63.2387 78.0195 63.8744 76.2536L54.4656 72.8664ZM53.613 74.2482C53.4049 74.4822 53.1089 74.7138 52.6269 74.9146L56.4731 84.1454C58.2311 83.4129 59.8017 82.3378 61.087 80.8918L53.613 74.2482ZM52.3927 75.0193C52.1226 75.1485 51.6285 75.3 50.77 75.3V85.3C52.8049 85.3 54.8308 84.9381 56.7073 84.0407L52.3927 75.0193ZM50.77 75.3C49.4678 75.3 48.8854 75.0093 48.6362 74.8313L42.8238 82.9687C45.188 84.6573 47.9655 85.3 50.77 85.3V75.3ZM48.7061 74.8822C48.0567 74.4011 47.4987 73.7731 47.0341 72.9258L38.2659 77.7342C39.388 79.7803 40.8833 81.5322 42.7539 82.9178L48.7061 74.8822ZM46.9597 72.7949C46.1607 71.4367 45.3465 69.7978 44.5262 67.8551L35.3138 71.7449C36.2669 74.0022 37.2726 76.05 38.3403 77.8651L46.9597 72.7949ZM44.5262 67.8551C43.6428 65.7628 42.7359 63.6001 41.8054 61.3669L32.5746 65.2131C33.5108 67.4599 34.4238 69.6372 35.3138 71.7449L44.5262 67.8551ZM41.839 61.4498C40.9259 59.1429 39.9646 56.8597 38.955 54.6003L29.825 58.6797C30.7754 60.807 31.6808 62.9571 32.541 65.1302L41.839 61.4498ZM38.955 54.6003C37.9207 52.2853 36.8484 50.1373 35.7349 48.1634L27.0251 53.0766C27.965 54.7427 28.8993 56.608 29.825 58.6797L38.955 54.6003ZM79.2496 78.55L77.0923 83.0607L77.1049 83.0667L77.1175 83.0726L79.2496 78.55ZM71.5496 72.18L67.4335 75.0187L67.45 75.0425L67.4667 75.0662L71.5496 72.18ZM67.6296 62.73L62.7316 63.7347L62.7342 63.7472L67.6296 62.73ZM66.5796 39.98L61.5812 39.855L61.5804 39.8859L61.58 39.9167L66.5796 39.98ZM66.9296 29.13L61.9419 28.78L61.9366 28.855L61.9336 28.9302L66.9296 29.13ZM69.8696 22.83L73.148 26.6052L73.176 26.5809L73.2036 26.5562L69.8696 22.83ZM83.3096 22.83L79.9756 26.5562L80.0271 26.6023L80.0799 26.6469L83.3096 22.83ZM86.2496 29.13L81.2565 29.3928L81.2567 29.3963L86.2496 29.13ZM86.5996 39.98L81.6 40.0425L81.6004 40.0745L81.6012 40.1065L86.5996 39.98ZM86.8796 53.84L81.9071 54.3634L81.9206 54.4921L81.9408 54.6198L86.8796 53.84ZM87.5796 56.22L83.0487 58.3344L83.0773 58.3956L83.1075 58.4561L87.5796 56.22ZM88.9796 57.76L86.3591 62.0183L86.4283 62.0609L86.4989 62.1012L88.9796 57.76ZM95.5596 56.22L100.032 58.4561L100.062 58.3956L100.091 58.3344L95.5596 56.22ZM96.1896 53.84L91.2508 53.0602L91.2306 53.1879L91.2171 53.3166L96.1896 53.84ZM96.4696 39.98L91.4712 39.855L91.4704 39.8859L91.47 39.9167L96.4696 39.98ZM96.8896 29.13L101.883 29.3963L101.885 29.3524L101.886 29.3085L96.8896 29.13ZM99.7596 22.83L103.081 26.567L103.138 26.5169L103.193 26.4651L99.7596 22.83ZM102.7 21.08L104.281 25.8234L104.337 25.8046L104.393 25.7844L102.7 21.08ZM110.26 21.08L108.566 25.7844L108.65 25.8148L108.736 25.8421L110.26 21.08ZM113.27 22.83L109.836 26.4651L109.94 26.5628L110.049 26.6546L113.27 22.83ZM115.37 25.56L119.88 23.4027L119.88 23.4027L115.37 25.56ZM116.21 29.13L111.213 29.3085L111.214 29.3524L111.217 29.3963L116.21 29.13ZM116.56 39.98L111.56 40.0425L111.56 40.0745L111.561 40.1065L116.56 39.98ZM115.51 62.73L110.624 61.6652L110.619 61.689L110.614 61.7128L115.51 62.73ZM111.52 72.18L107.437 69.2938L107.42 69.3175L107.404 69.3413L111.52 72.18ZM103.82 78.55L101.688 74.0274L101.675 74.0333L101.662 74.0393L103.82 78.55ZM91.5696 75.86C87.1031 75.86 83.7827 75.1592 81.3817 74.0274L77.1175 83.0726C81.2499 85.0208 86.1428 85.86 91.5696 85.86V75.86ZM81.4069 74.0393C78.8959 72.8384 77.0155 71.2503 75.6325 69.2938L67.4667 75.0662C69.9103 78.523 73.1633 81.1816 77.0923 83.0607L81.4069 74.0393ZM75.6657 69.3413C74.2194 67.2442 73.1518 64.729 72.525 61.7128L62.7342 63.7472C63.6008 67.9177 65.1465 71.7025 67.4335 75.0187L75.6657 69.3413ZM72.5276 61.7253C71.8569 58.4554 71.5096 54.8754 71.5096 50.97H61.5096C61.5096 55.4646 61.909 59.7246 62.7316 63.7347L72.5276 61.7253ZM71.5096 50.97C71.5096 47.3514 71.5328 43.7091 71.5792 40.0433L61.58 39.9167C61.5331 43.6242 61.5096 47.3086 61.5096 50.97H71.5096ZM71.578 40.105C71.6708 36.395 71.7867 32.8033 71.9256 29.3298L61.9336 28.9302C61.7925 32.4567 61.6751 36.0984 61.5812 39.855L71.578 40.105ZM71.9173 29.48C72.0248 27.9483 72.5148 27.1551 73.148 26.6052L66.5912 19.0548C63.6778 21.5849 62.2077 24.9917 61.9419 28.78L71.9173 29.48ZM73.2036 26.5562C73.9337 25.903 74.9322 25.45 76.5896 25.45V15.45C72.8337 15.45 69.3522 16.5837 66.5356 19.1038L73.2036 26.5562ZM76.5896 25.45C78.247 25.45 79.2455 25.903 79.9756 26.5562L86.6436 19.1038C83.827 16.5837 80.3455 15.45 76.5896 15.45V25.45ZM80.0799 26.6469C80.7181 27.1869 81.1796 27.9316 81.2565 29.3928L91.2427 28.8672C91.0396 25.0084 89.5411 21.5531 86.5393 19.0131L80.0799 26.6469ZM81.2567 29.3963C81.4395 32.8242 81.5541 36.3728 81.6 40.0425L91.5992 39.9175C91.5518 36.1206 91.433 32.4358 91.2425 28.8637L81.2567 29.3963ZM81.6012 40.1065C81.6935 43.7516 81.7396 47.3727 81.7396 50.97H91.7396C91.7396 47.2873 91.6924 43.5817 91.598 39.8535L81.6012 40.1065ZM81.7396 50.97C81.7396 52.146 81.793 53.2792 81.9071 54.3634L91.8521 53.3166C91.7796 52.6275 91.7396 51.8474 91.7396 50.97H81.7396ZM81.9408 54.6198C82.1422 55.8954 82.4954 57.1488 83.0487 58.3344L92.1105 54.1056C92.0105 53.8912 91.897 53.558 91.8184 53.0602L81.9408 54.6198ZM83.1075 58.4561C83.8397 59.9205 84.9379 61.1437 86.3591 62.0183L91.6001 53.5017C91.6859 53.5545 91.7833 53.6315 91.8743 53.7316C91.9647 53.8311 92.0212 53.9229 92.0518 53.9839L83.1075 58.4561ZM86.4989 62.1012C88.1624 63.0518 89.9759 63.32 91.5696 63.32V53.32C91.4453 53.32 91.351 53.3146 91.2837 53.3081C91.2163 53.3016 91.1812 53.2945 91.1738 53.2929C91.1573 53.2894 91.2736 53.3121 91.4603 53.4188L86.4989 62.1012ZM91.5696 63.32C93.1626 63.32 94.9354 63.0354 96.5703 62.1012L91.6089 53.4188C91.7752 53.3237 91.8841 53.2993 91.885 53.2991C91.885 53.2991 91.8604 53.3045 91.8071 53.3098C91.7537 53.3152 91.6755 53.32 91.5696 53.32V63.32ZM96.5703 62.1012C98.0533 61.2538 99.2497 60.0201 100.032 58.4561L91.0875 53.9839C91.1404 53.878 91.2211 53.757 91.3303 53.6426C91.4386 53.5292 91.5413 53.4574 91.6089 53.4188L96.5703 62.1012ZM100.091 58.3344C100.685 57.0615 101.02 55.7178 101.162 54.3634L91.2171 53.3166C91.173 53.7355 91.088 53.9785 91.0287 54.1056L100.091 58.3344ZM101.128 54.6198C101.314 53.4416 101.4 52.2214 101.4 50.97H91.3996C91.3996 51.7719 91.3448 52.465 91.2508 53.0602L101.128 54.6198ZM101.4 50.97C101.4 47.3514 101.423 43.7091 101.469 40.0433L91.47 39.9167C91.4231 43.6242 91.3996 47.3086 91.3996 50.97H101.4ZM101.468 40.105C101.56 36.4157 101.699 32.8463 101.883 29.3963L91.8967 28.8637C91.7074 32.4137 91.5656 36.0776 91.4712 39.855L101.468 40.105ZM101.886 29.3085C101.911 28.6194 102.051 28.1125 102.24 27.7173L93.2189 23.4027C92.3813 25.1542 91.9615 27.0272 91.8928 28.9515L101.886 29.3085ZM102.24 27.7173C102.484 27.2087 102.768 26.8459 103.081 26.567L96.4378 19.093C95.0715 20.3074 94.0024 21.7647 93.2189 23.4027L102.24 27.7173ZM103.193 26.4651C103.492 26.1827 103.836 25.9717 104.281 25.8234L101.118 16.3366C99.3233 16.935 97.7075 17.8906 96.3265 19.1949L103.193 26.4651ZM104.393 25.7844C104.969 25.5771 105.651 25.45 106.48 25.45V15.45C104.602 15.45 102.763 15.7429 101.006 16.3756L104.393 25.7844ZM106.48 25.45C107.308 25.45 107.99 25.5771 108.566 25.7844L111.953 16.3756C110.196 15.7429 108.358 15.45 106.48 15.45V25.45ZM108.736 25.8421C109.234 26.0014 109.573 26.2163 109.836 26.4651L116.703 19.1949C115.286 17.8571 113.619 16.9052 111.783 16.3179L108.736 25.8421ZM110.049 26.6546C110.377 26.9312 110.644 27.2677 110.859 27.7173L119.88 23.4027C119.069 21.7057 117.935 20.2221 116.49 19.0054L110.049 26.6546ZM110.859 27.7173C111.048 28.1125 111.188 28.6194 111.213 29.3085L121.206 28.9515C121.138 27.0272 120.718 25.1542 119.88 23.4027L110.859 27.7173ZM111.217 29.3963C111.4 32.8242 111.514 36.3728 111.56 40.0425L121.559 39.9175C121.512 36.1206 121.393 32.4358 121.203 28.8637L111.217 29.3963ZM111.561 40.1065C111.653 43.7516 111.7 47.3727 111.7 50.97H121.7C121.7 47.2873 121.652 43.5817 121.558 39.8535L111.561 40.1065ZM111.7 50.97C111.7 54.8565 111.332 58.416 110.624 61.6652L120.395 63.7948C121.273 59.764 121.7 55.4835 121.7 50.97H111.7ZM110.614 61.7128C109.992 64.7064 108.913 67.2051 107.437 69.2938L115.603 75.0662C117.953 71.7415 119.534 67.9403 120.405 63.7472L110.614 61.7128ZM107.404 69.3413C106.086 71.2513 104.237 72.8257 101.688 74.0274L105.952 83.0726C109.936 81.1943 113.22 78.5221 115.636 75.0187L107.404 69.3413ZM101.662 74.0393C99.3237 75.1578 96.0406 75.86 91.5696 75.86V85.86C96.992 85.86 101.876 85.0222 105.977 83.0607L101.662 74.0393ZM137.067 78.34L139.205 73.8201L139.18 73.8082L139.155 73.7966L137.067 78.34ZM128.387 71.83L124.541 75.0245L124.557 75.0436L124.573 75.0626L128.387 71.83ZM123.137 62.17L118.365 63.6614L118.376 63.6973L118.388 63.7331L123.137 62.17ZM122.787 38.44L117.94 37.2129L122.787 38.44ZM127.477 28.78L123.573 25.6565L123.567 25.6646L127.477 28.78ZM136.367 22.2L138.344 26.7927L138.358 26.7868L138.372 26.7808L136.367 22.2ZM158.977 20.52L157.997 25.4229L158.005 25.4246L158.014 25.4262L158.977 20.52ZM165.837 22.9L168.242 18.5159L168.239 18.5145L165.837 22.9ZM169.127 25.84L164.916 28.5353L164.941 28.5746L164.967 28.6135L169.127 25.84ZM170.457 29.48L165.486 30.0127V30.0127L170.457 29.48ZM170.107 33.54L174.927 34.8696L174.933 34.849L174.939 34.8283L170.107 33.54ZM168.357 37.39L164.173 34.6538L164.169 34.6587L168.357 37.39ZM165.837 40.26L162.583 36.4637L162.538 36.5031L162.493 36.5435L165.837 40.26ZM162.757 42.22L160.834 37.6046V37.6046L162.757 42.22ZM159.187 42.92L159.002 47.9166L159.095 47.92H159.187V42.92ZM155.337 41.87L152.967 46.2724L153.034 46.3083L153.101 46.3421L155.337 41.87ZM153.167 41.1L151.829 45.9176L151.955 45.9526L152.083 45.9809L153.167 41.1ZM143.157 43.62L139.333 40.3993L139.282 40.4598L139.233 40.5218L143.157 43.62ZM141.547 46.7L136.785 45.1761L136.766 45.2378L136.747 45.3L141.547 46.7ZM141.547 53.91L136.733 55.2581L136.74 55.2841L136.747 55.31L141.547 53.91ZM143.017 56.92L138.992 59.886L139.041 59.9529L139.093 60.0182L143.017 56.92ZM145.607 59.02L143.371 63.4921L143.411 63.5117L143.45 63.5307L145.607 59.02ZM151.207 59.65L151.915 64.5997L152.052 64.5801L152.188 64.5529L151.207 59.65ZM153.237 59.16L154.611 63.9676L154.767 63.9231L154.919 63.8687L153.237 59.16ZM155.057 58.46L153.263 53.7933L153.198 53.8181L153.134 53.8446L155.057 58.46ZM156.527 57.69L153.754 53.5297L153.638 53.6067L153.527 53.69L156.527 57.69ZM158.627 56.08L162.006 59.7658L162.012 59.7599L162.019 59.754L158.627 56.08ZM160.307 54.19L164.339 57.1468L164.406 57.0566L164.468 56.9635L160.307 54.19ZM160.517 53.49L155.615 54.4706L155.638 54.5873L155.667 54.7027L160.517 53.49ZM160.237 53L163.011 48.8398L163.011 48.8397L160.237 53ZM159.677 52.93V57.93H160.173L160.658 57.8329L159.677 52.93ZM159.117 53.28L155.213 50.1565L155.078 50.326L154.957 50.5065L159.117 53.28ZM157.577 55.1L154.042 51.5645V51.5645L157.577 55.1ZM155.477 56.43L153.813 51.715L153.777 51.7279L153.741 51.7413L155.477 56.43ZM151.977 57.06L151.544 62.0412L151.652 62.0506L151.76 62.0553L151.977 57.06ZM149.107 56.22L146.572 60.5297L146.625 60.5609L146.679 60.5908L149.107 56.22ZM147.217 54.33L142.745 56.5661L142.821 56.7183L142.908 56.8651L147.217 54.33ZM148.057 47.54L151.412 51.2477L151.459 51.2048L151.506 51.1607L148.057 47.54ZM152.537 45.79L153.115 50.7565L153.148 50.7527L153.18 50.7485L152.537 45.79ZM167.797 46.14L169.01 41.2893L168.956 41.2758L168.902 41.2634L167.797 46.14ZM170.877 47.54L168.01 51.6362L168.057 51.6687L168.104 51.7002L170.877 47.54ZM173.397 49.92L169.397 52.92L169.435 52.9696L169.473 53.0182L173.397 49.92ZM175.007 53L170.245 54.5239L170.254 54.5526L170.264 54.5811L175.007 53ZM173.817 66.02L169.17 64.1758L169.157 64.2078L169.145 64.24L173.817 66.02ZM168.777 73.72L165.279 70.1474L165.26 70.1659L165.242 70.1845L168.777 73.72ZM160.517 78.9L158.74 74.2265L158.729 74.2307L158.718 74.235L160.517 78.9ZM149.107 75.79C145.13 75.79 141.871 75.0811 139.205 73.8201L134.93 82.8599C139.17 84.8656 143.939 85.79 149.107 85.79V75.79ZM139.155 73.7966C136.33 72.4987 134.037 70.7633 132.202 68.5974L124.573 75.0626C127.404 78.4034 130.898 81.0079 134.98 82.8834L139.155 73.7966ZM132.234 68.6355C130.38 66.4038 128.921 63.7485 127.887 60.6069L118.388 63.7331C119.781 67.9648 121.821 71.7495 124.541 75.0245L132.234 68.6355ZM127.91 60.6786C126.905 57.4624 126.387 54.0015 126.387 50.27H116.387C116.387 54.9385 117.037 59.411 118.365 63.6614L127.91 60.6786ZM126.387 50.27C126.387 46.4412 126.813 42.9134 127.635 39.6671L117.94 37.2129C116.896 41.34 116.387 45.6988 116.387 50.27H126.387ZM127.635 39.6671C128.408 36.6131 129.672 34.0494 131.388 31.8954L123.567 25.6646C120.896 29.0173 119.034 32.8935 117.94 37.2129L127.635 39.6671ZM131.382 31.9035C133.051 29.8173 135.319 28.0944 138.344 26.7927L134.391 17.6073C130.042 19.4789 126.384 22.1427 123.573 25.6565L131.382 31.9035ZM138.372 26.7808C141.288 25.5048 145.198 24.75 150.297 24.75V14.75C144.29 14.75 138.914 15.6285 134.363 17.6192L138.372 26.7808ZM150.297 24.75C153.26 24.75 155.817 24.9869 157.997 25.4229L159.958 15.6171C157.005 15.0265 153.775 14.75 150.297 14.75V24.75ZM158.014 25.4262C160.217 25.8591 162.002 26.5004 163.436 27.2855L168.239 18.5145C165.753 17.1529 162.964 16.2075 159.941 15.6138L158.014 25.4262ZM163.433 27.2841C164.286 27.7516 164.7 28.1974 164.916 28.5353L173.339 23.1447C172.062 21.1493 170.282 19.6351 168.242 18.5159L163.433 27.2841ZM164.967 28.6135C165.278 29.0798 165.434 29.5274 165.486 30.0127L175.429 28.9473C175.201 26.8193 174.47 24.8402 173.288 23.0665L164.967 28.6135ZM165.486 30.0127C165.554 30.6493 165.508 31.3841 165.276 32.2517L174.939 34.8283C175.454 32.8959 175.641 30.9241 175.429 28.9473L165.486 30.0127ZM165.287 32.2104C165.056 33.0486 164.692 33.8593 164.173 34.6538L172.542 40.1262C173.609 38.494 174.412 36.7381 174.927 34.8696L165.287 32.2104ZM164.169 34.6587C163.731 35.3316 163.206 35.9303 162.583 36.4637L169.091 44.0563C170.429 42.9097 171.584 41.5951 172.545 40.1213L164.169 34.6587ZM162.493 36.5435C161.964 37.0191 161.415 37.3627 160.834 37.6046L164.68 46.8354C166.34 46.144 167.844 45.1809 169.182 43.9765L162.493 36.5435ZM160.834 37.6046C160.347 37.8076 159.813 37.92 159.187 37.92V47.92C161.082 47.92 162.928 47.5657 164.68 46.8354L160.834 37.6046ZM159.372 37.9234C158.93 37.907 158.342 37.7823 157.573 37.3979L153.101 46.3421C154.946 47.2643 156.925 47.8396 159.002 47.9166L159.372 37.9234ZM157.708 37.4676C156.611 36.8769 155.434 36.4818 154.252 36.2191L152.083 45.9809C152.58 46.0915 152.851 46.2097 152.967 46.2724L157.708 37.4676ZM154.506 36.2824C153.143 35.9039 151.723 35.75 150.297 35.75V45.75C151.018 45.75 151.512 45.8294 151.829 45.9176L154.506 36.2824ZM150.297 35.75C148.134 35.75 145.982 36.0772 144.014 36.9434L148.041 46.0966C148.406 45.9362 149.101 45.75 150.297 45.75V35.75ZM144.014 36.9434C142.218 37.7334 140.619 38.872 139.333 40.3993L146.982 46.8407C147.189 46.5947 147.503 46.3333 148.041 46.0966L144.014 36.9434ZM139.233 40.5218C138.132 41.917 137.326 43.487 136.785 45.1761L146.31 48.2239C146.516 47.5797 146.783 47.0963 147.082 46.7182L139.233 40.5218ZM136.747 45.3C136.278 46.9097 136.057 48.5739 136.057 50.27H146.057C146.057 49.4461 146.164 48.7303 146.347 48.1L136.747 45.3ZM136.057 50.27C136.057 51.9674 136.278 53.6354 136.733 55.2581L146.362 52.5619C146.163 51.8513 146.057 51.0926 146.057 50.27H136.057ZM136.747 55.31C137.229 56.9597 137.97 58.4994 138.992 59.886L147.043 53.954C146.758 53.5673 146.52 53.1003 146.347 52.51L136.747 55.31ZM139.093 60.0182C140.256 61.4908 141.699 62.6558 143.371 63.4921L147.843 54.5479C147.463 54.3575 147.179 54.1225 146.942 53.8218L139.093 60.0182ZM143.45 63.5307C145.306 64.4182 147.302 64.79 149.317 64.79V54.79C148.533 54.79 148.056 54.6484 147.765 54.5093L143.45 63.5307ZM149.317 64.79C150.18 64.79 151.047 64.7237 151.915 64.5997L150.5 54.7003C150.061 54.763 149.668 54.79 149.317 54.79V64.79ZM152.188 64.5529C153.014 64.3878 153.822 64.1931 154.611 63.9676L151.864 54.3524C151.346 54.5002 150.801 54.6322 150.227 54.7471L152.188 64.5529ZM154.919 63.8687C155.642 63.6104 156.331 63.3462 156.98 63.0754L153.134 53.8446C152.664 54.0405 152.139 54.243 151.556 54.4513L154.919 63.8687ZM156.852 63.1267C157.734 62.7875 158.672 62.3314 159.527 61.69L153.527 53.69C153.591 53.6426 153.609 53.6374 153.56 53.6633C153.512 53.6886 153.417 53.734 153.263 53.7933L156.852 63.1267ZM159.301 61.8503C160.29 61.1911 161.207 60.4983 162.006 59.7658L155.249 52.3942C154.928 52.6884 154.445 53.0689 153.754 53.5297L159.301 61.8503ZM162.019 59.754C162.873 58.9652 163.646 58.0927 164.339 57.1468L156.275 51.2332C155.942 51.6873 155.595 52.0748 155.236 52.406L162.019 59.754ZM164.468 56.9635C164.886 56.3357 165.939 54.562 165.368 52.2773L155.667 54.7027C155.421 53.7198 155.555 52.887 155.711 52.3683C155.861 51.8686 156.062 51.5436 156.147 51.4165L164.468 56.9635ZM165.42 52.5094C165.223 51.5204 164.643 49.9281 163.011 48.8398L157.464 57.1602C156.111 56.2585 155.719 54.993 155.615 54.4706L165.42 52.5094ZM163.011 48.8397C161.378 47.7514 159.686 47.8293 158.697 48.0271L160.658 57.8329C160.136 57.9374 158.816 58.0619 157.464 57.1603L163.011 48.8397ZM159.677 47.93C157.25 47.93 155.78 49.4479 155.213 50.1565L163.022 56.4035C162.828 56.6455 161.732 57.93 159.677 57.93V47.93ZM154.957 50.5065C154.82 50.7126 154.542 51.0645 154.042 51.5645L161.113 58.6355C161.92 57.8289 162.668 56.9674 163.278 56.0535L154.957 50.5065ZM154.042 51.5645C153.952 51.654 153.888 51.6886 153.813 51.715L157.142 61.145C158.653 60.6114 159.989 59.7593 161.113 58.6355L154.042 51.5645ZM153.741 51.7413C152.954 52.0327 152.459 52.0762 152.195 52.0647L151.76 62.0553C153.643 62.1371 155.481 61.7606 157.214 61.1187L153.741 51.7413ZM152.411 52.0788C151.953 52.039 151.69 51.9352 151.536 51.8492L146.679 60.5908C148.204 61.4381 149.856 61.8944 151.544 62.0412L152.411 52.0788ZM151.643 51.9103C151.599 51.8845 151.581 51.8678 151.575 51.862C151.57 51.8561 151.553 51.8388 151.527 51.7949L142.908 56.8651C143.805 58.3912 145.046 59.632 146.572 60.5297L151.643 51.9103ZM151.69 52.0939C151.648 52.0112 151.587 51.854 151.587 51.53H141.587C141.587 53.2593 141.947 54.9688 142.745 56.5661L151.69 52.0939ZM151.587 51.53C151.587 51.091 151.65 50.9232 151.647 50.931C151.644 50.9389 151.626 50.9847 151.581 51.0515C151.536 51.1196 151.478 51.1879 151.412 51.2477L144.703 43.8323C142.351 45.9602 141.587 48.8497 141.587 51.53H151.587ZM151.506 51.1607C151.398 51.2636 151.68 50.9234 153.115 50.7565L151.96 40.8235C149.382 41.1233 146.677 41.9497 144.609 43.9193L151.506 51.1607ZM153.18 50.7485C155.485 50.4497 157.814 50.3 160.167 50.3V40.3C157.388 40.3 154.63 40.4769 151.895 40.8315L153.18 50.7485ZM160.167 50.3C162.421 50.3 164.593 50.5411 166.693 51.0166L168.902 41.2634C166.055 40.6189 163.141 40.3 160.167 40.3V50.3ZM166.585 50.9907C167.12 51.1245 167.584 51.3381 168.01 51.6362L173.745 43.4438C172.304 42.4352 170.715 41.7155 169.01 41.2893L166.585 50.9907ZM168.104 51.7002C168.617 52.0422 169.041 52.4445 169.397 52.92L177.397 46.92C176.354 45.5288 175.098 44.3445 173.651 43.3797L168.104 51.7002ZM169.473 53.0182C169.772 53.3963 170.039 53.8797 170.245 54.5239L179.77 51.4761C179.229 49.787 178.423 48.217 177.322 46.8218L169.473 53.0182ZM170.264 54.5811C170.456 55.158 170.567 55.8112 170.567 56.57H180.567C180.567 54.8088 180.305 53.082 179.751 51.4189L170.264 54.5811ZM170.567 56.57C170.567 59.3383 170.089 61.8586 169.17 64.1758L178.465 67.8642C179.879 64.3014 180.567 60.5217 180.567 56.57H170.567ZM169.145 64.24C168.281 66.5071 167.001 68.4616 165.279 70.1474L172.276 77.2925C175.034 74.5917 177.114 71.4129 178.49 67.8L169.145 64.24ZM165.242 70.1845C163.614 71.8121 161.488 73.1817 158.74 74.2265L162.295 83.5735C166.174 82.0983 169.554 80.0146 172.313 77.2555L165.242 70.1845ZM158.718 74.235C156.145 75.2276 152.974 75.79 149.107 75.79V85.79C153.92 85.79 158.357 85.0924 162.317 83.565L158.718 74.235ZM192.863 78.55L190.706 83.0607L190.718 83.0667L190.731 83.0726L192.863 78.55ZM185.163 72.18L181.047 75.0187L181.063 75.0425L181.08 75.0662L185.163 72.18ZM181.243 62.73L176.345 63.7347L176.347 63.7472L181.243 62.73ZM180.193 39.98L175.194 39.855L175.194 39.8859L175.193 39.9167L180.193 39.98ZM180.543 29.13L175.555 28.78L175.55 28.855L175.547 28.9302L180.543 29.13ZM183.483 22.83L186.761 26.6052L186.789 26.5809L186.817 26.5562L183.483 22.83ZM196.923 22.83L193.589 26.5562L193.64 26.6023L193.693 26.6469L196.923 22.83ZM199.863 29.13L194.87 29.3928L194.87 29.3963L199.863 29.13ZM200.213 39.98L195.213 40.0425L195.214 40.0745L195.214 40.1065L200.213 39.98ZM200.493 53.84L195.52 54.3634L195.534 54.4921L195.554 54.6198L200.493 53.84ZM201.193 56.22L196.662 58.3344L196.691 58.3956L196.721 58.4561L201.193 56.22ZM202.593 57.76L199.972 62.0183L200.042 62.0609L200.112 62.1012L202.593 57.76ZM209.173 56.22L213.645 58.4561L213.675 58.3956L213.704 58.3344L209.173 56.22ZM209.803 53.84L204.864 53.0602L204.844 53.1879L204.83 53.3166L209.803 53.84ZM210.083 39.98L205.084 39.855L205.084 39.8859L205.083 39.9167L210.083 39.98ZM210.503 29.13L215.496 29.3963L215.498 29.3524L215.5 29.3085L210.503 29.13ZM213.373 22.83L216.695 26.567L216.751 26.5169L216.806 26.4651L213.373 22.83ZM216.313 21.08L217.894 25.8234L217.95 25.8046L218.006 25.7844L216.313 21.08ZM223.873 21.08L222.179 25.7844L222.264 25.8148L222.349 25.8421L223.873 21.08ZM226.883 22.83L223.45 26.4651L223.553 26.5628L223.662 26.6546L226.883 22.83ZM228.983 25.56L233.494 23.4027V23.4027L228.983 25.56ZM229.823 29.13L224.826 29.3085L224.828 29.3524L224.83 29.3963L229.823 29.13ZM230.173 39.98L225.173 40.0425L225.174 40.0745L225.174 40.1065L230.173 39.98ZM229.123 62.73L224.238 61.6652L224.232 61.689L224.227 61.7128L229.123 62.73ZM225.133 72.18L221.05 69.2938L221.033 69.3175L221.017 69.3413L225.133 72.18ZM217.433 78.55L215.301 74.0274L215.288 74.0333L215.276 74.0393L217.433 78.55ZM205.183 75.86C200.716 75.86 197.396 75.1592 194.995 74.0274L190.731 83.0726C194.863 85.0208 199.756 85.86 205.183 85.86V75.86ZM195.02 74.0393C192.509 72.8384 190.629 71.2503 189.246 69.2938L181.08 75.0662C183.524 78.523 186.777 81.1816 190.706 83.0607L195.02 74.0393ZM189.279 69.3413C187.833 67.2442 186.765 64.729 186.138 61.7128L176.347 63.7472C177.214 67.9177 178.76 71.7025 181.047 75.0187L189.279 69.3413ZM186.141 61.7253C185.47 58.4554 185.123 54.8754 185.123 50.97H175.123C175.123 55.4646 175.522 59.7246 176.345 63.7347L186.141 61.7253ZM185.123 50.97C185.123 47.3514 185.146 43.7091 185.192 40.0433L175.193 39.9167C175.146 43.6242 175.123 47.3086 175.123 50.97H185.123ZM185.191 40.105C185.284 36.395 185.4 32.8033 185.539 29.3298L175.547 28.9302C175.406 32.4567 175.288 36.0984 175.194 39.855L185.191 40.105ZM185.531 29.48C185.638 27.9483 186.128 27.1551 186.761 26.6052L180.204 19.0548C177.291 21.5849 175.821 24.9917 175.555 28.78L185.531 29.48ZM186.817 26.5562C187.547 25.903 188.545 25.45 190.203 25.45V15.45C186.447 15.45 182.965 16.5837 180.149 19.1038L186.817 26.5562ZM190.203 25.45C191.86 25.45 192.859 25.903 193.589 26.5562L200.257 19.1038C197.44 16.5837 193.959 15.45 190.203 15.45V25.45ZM193.693 26.6469C194.331 27.1869 194.793 27.9316 194.87 29.3928L204.856 28.8672C204.653 25.0084 203.154 21.5531 200.153 19.0131L193.693 26.6469ZM194.87 29.3963C195.053 32.8242 195.167 36.3728 195.213 40.0425L205.212 39.9175C205.165 36.1206 205.046 32.4358 204.856 28.8637L194.87 29.3963ZM195.214 40.1065C195.307 43.7516 195.353 47.3727 195.353 50.97H205.353C205.353 47.2873 205.306 43.5817 205.211 39.8535L195.214 40.1065ZM195.353 50.97C195.353 52.146 195.406 53.2792 195.52 54.3634L205.465 53.3166C205.393 52.6275 205.353 51.8474 205.353 50.97H195.353ZM195.554 54.6198C195.755 55.8954 196.109 57.1488 196.662 58.3344L205.724 54.1056C205.624 53.8912 205.51 53.558 205.432 53.0602L195.554 54.6198ZM196.721 58.4561C197.453 59.9205 198.551 61.1437 199.972 62.0183L205.213 53.5017C205.299 53.5545 205.397 53.6315 205.488 53.7316C205.578 53.8311 205.635 53.9229 205.665 53.9839L196.721 58.4561ZM200.112 62.1012C201.776 63.0518 203.589 63.32 205.183 63.32V53.32C205.059 53.32 204.964 53.3146 204.897 53.3081C204.83 53.3016 204.795 53.2945 204.787 53.2929C204.771 53.2894 204.887 53.3121 205.074 53.4188L200.112 62.1012ZM205.183 63.32C206.776 63.32 208.549 63.0354 210.184 62.1012L205.222 53.4188C205.389 53.3237 205.497 53.2993 205.498 53.2991C205.498 53.2991 205.474 53.3045 205.42 53.3098C205.367 53.3152 205.289 53.32 205.183 53.32V63.32ZM210.184 62.1012C211.667 61.2538 212.863 60.0201 213.645 58.4561L204.701 53.9839C204.754 53.878 204.834 53.757 204.944 53.6426C205.052 53.5292 205.155 53.4574 205.222 53.4188L210.184 62.1012ZM213.704 58.3344C214.298 57.0615 214.633 55.7178 214.775 54.3634L204.83 53.3166C204.786 53.7355 204.701 53.9785 204.642 54.1056L213.704 58.3344ZM214.742 54.6198C214.928 53.4416 215.013 52.2214 215.013 50.97H205.013C205.013 51.7719 204.958 52.465 204.864 53.0602L214.742 54.6198ZM215.013 50.97C215.013 47.3514 215.036 43.7091 215.082 40.0433L205.083 39.9167C205.036 43.6242 205.013 47.3086 205.013 50.97H215.013ZM215.081 40.105C215.174 36.4157 215.312 32.8463 215.496 29.3963L205.51 28.8637C205.321 32.4137 205.179 36.0776 205.084 39.855L215.081 40.105ZM215.5 29.3085C215.524 28.6194 215.665 28.1125 215.854 27.7173L206.832 23.4027C205.995 25.1542 205.575 27.0272 205.506 28.9515L215.5 29.3085ZM215.854 27.7173C216.097 27.2087 216.381 26.8459 216.695 26.567L210.051 19.093C208.685 20.3074 207.616 21.7647 206.832 23.4027L215.854 27.7173ZM216.806 26.4651C217.105 26.1827 217.449 25.9717 217.894 25.8234L214.732 16.3366C212.937 16.935 211.321 17.8906 209.94 19.1949L216.806 26.4651ZM218.006 25.7844C218.582 25.5771 219.264 25.45 220.093 25.45V15.45C218.215 15.45 216.377 15.7429 214.619 16.3756L218.006 25.7844ZM220.093 25.45C220.922 25.45 221.603 25.5771 222.179 25.7844L225.566 16.3756C223.809 15.7429 221.971 15.45 220.093 15.45V25.45ZM222.349 25.8421C222.847 26.0014 223.186 26.2163 223.45 26.4651L230.316 19.1949C228.899 17.8571 227.232 16.9052 225.397 16.3179L222.349 25.8421ZM223.662 26.6546C223.991 26.9312 224.257 27.2677 224.472 27.7173L233.494 23.4027C232.682 21.7057 231.548 20.2221 230.104 19.0054L223.662 26.6546ZM224.472 27.7173C224.661 28.1125 224.801 28.6194 224.826 29.3085L234.82 28.9515C234.751 27.0272 234.331 25.1542 233.494 23.4027L224.472 27.7173ZM224.83 29.3963C225.013 32.8242 225.127 36.3728 225.173 40.0425L235.173 39.9175C235.125 36.1206 235.006 32.4358 234.816 28.8637L224.83 29.3963ZM225.174 40.1065C225.267 43.7516 225.313 47.3727 225.313 50.97H235.313C235.313 47.2873 235.266 43.5817 235.171 39.8535L225.174 40.1065ZM225.313 50.97C225.313 54.8565 224.946 58.416 224.238 61.6652L234.008 63.7948C234.887 59.764 235.313 55.4835 235.313 50.97H225.313ZM224.227 61.7128C223.605 64.7064 222.526 67.2051 221.05 69.2938L229.216 75.0662C231.566 71.7415 233.147 67.9403 234.018 63.7472L224.227 61.7128ZM221.017 69.3413C219.7 71.2513 217.85 72.8257 215.301 74.0274L219.565 83.0726C223.549 81.1943 226.833 78.5221 229.249 75.0187L221.017 69.3413ZM215.276 74.0393C212.937 75.1578 209.654 75.86 205.183 75.86V85.86C210.605 85.86 215.489 85.0222 219.59 83.0607L215.276 74.0393Z" fill="white" mask="url(#path-1-outside-1_118_7768)"/>
</g>
<defs>
<filter id="filter0_d_118_7768" x="0.660156" y="13.75" width="239.653" height="81.1101" filterUnits="userSpaceOnUse" color-interpolation-filters="sRGB">
<feFlood flood-opacity="0" result="BackgroundImageFix"/>
<feColorMatrix in="SourceAlpha" type="matrix" values="0 0 0 0 0 0 0 0 0 0 0 0 0 0 0 0 0 0 127 0" result="hardAlpha"/>
<feOffset dy="4"/>
<feGaussianBlur stdDeviation="5"/>
<feComposite in2="hardAlpha" operator="out"/>
<feColorMatrix type="matrix" values="0 0 0 0 0 0 0 0 0 0 0 0 0 0 0 0 0 0 0.15 0"/>
<feBlend mode="normal" in2="BackgroundImageFix" result="effect1_dropShadow_118_7768"/>
<feBlend mode="normal" in="SourceGraphic" in2="effect1_dropShadow_118_7768" result="shape"/>
</filter>
</defs>
</svg>
