<svg width="121" height="52" viewBox="0 0 121 52" fill="none" xmlns="http://www.w3.org/2000/svg">
<g filter="url(#filter0_d_1_6255)">
<mask id="path-1-outside-1_1_6255" maskUnits="userSpaceOnUse" x="5" y="4" width="111" height="39" fill="black">
<rect fill="white" x="5" y="4" width="111" height="39"/>
<path d="M19.688 23.312C19.688 24.016 19.6667 24.7733 19.624 25.584C19.6027 26.3733 19.5707 27.1733 19.528 27.984C19.4853 28.7947 19.432 29.5947 19.368 30.384C19.304 31.1733 19.24 31.9093 19.176 32.592C19.112 33.1893 18.984 33.744 18.792 34.256C18.6 34.7893 18.3227 35.248 17.96 35.632C17.6187 36.016 17.192 36.3147 16.68 36.528C16.1893 36.7627 15.6133 36.88 14.952 36.88C14.2693 36.88 13.672 36.7627 13.16 36.528C12.6693 36.3147 12.2427 36.016 11.88 35.632C11.5387 35.248 11.272 34.7893 11.08 34.256C10.888 33.744 10.76 33.1893 10.696 32.592C10.376 29.5413 10.216 26.4053 10.216 23.184C10.216 19.9627 10.376 16.8267 10.696 13.776C10.76 13.1787 10.888 12.624 11.08 12.112C11.272 11.6 11.5387 11.152 11.88 10.768C12.2427 10.384 12.6693 10.0853 13.16 9.872C13.672 9.63733 14.2693 9.52 14.952 9.52C15.72 9.52 16.3707 9.65867 16.904 9.936C17.4587 10.2133 17.9173 10.5973 18.28 11.088C19.0053 12.0267 19.6453 13.0293 20.2 14.096C20.776 15.1413 21.3307 16.2187 21.864 17.328C22.3973 18.416 22.92 19.5147 23.432 20.624C23.9653 21.7333 24.5413 22.8 25.16 23.824C25.224 23.952 25.2987 24.0373 25.384 24.08C25.4907 24.1227 25.576 24.1227 25.64 24.08C25.7253 24.016 25.7787 23.9307 25.8 23.824C25.8427 23.7173 25.8213 23.5893 25.736 23.44C25.3947 22.7573 25.0853 22.16 24.808 21.648C24.5307 21.1147 24.2213 20.5387 23.88 19.92C23.9227 18.8533 23.976 17.7867 24.04 16.72C24.104 15.632 24.1787 14.6507 24.264 13.776C24.3493 13.1787 24.488 12.624 24.68 12.112C24.8933 11.6 25.1707 11.152 25.512 10.768C25.8747 10.384 26.3013 10.0853 26.792 9.872C27.2827 9.63733 27.8693 9.52 28.552 9.52C29.2133 9.52 29.7893 9.63733 30.28 9.872C30.792 10.0853 31.2187 10.384 31.56 10.768C31.9227 11.152 32.2 11.6 32.392 12.112C32.6053 12.624 32.7547 13.1787 32.84 13.776C33.1387 16.8267 33.288 19.9627 33.288 23.184C33.288 26.4053 33.1387 29.5413 32.84 32.592C32.7547 33.1893 32.6053 33.744 32.392 34.256C32.2 34.7893 31.9227 35.248 31.56 35.632C31.2187 36.016 30.792 36.3147 30.28 36.528C29.7893 36.7627 29.2133 36.88 28.552 36.88C27.6133 36.88 26.8453 36.6667 26.248 36.24C25.672 35.8133 25.2027 35.2693 24.84 34.608C24.4133 33.8827 23.9973 33.04 23.592 32.08C23.1867 31.12 22.7707 30.128 22.344 29.104C21.9387 28.08 21.512 27.0667 21.064 26.064C20.616 25.0613 20.1573 24.144 19.688 23.312ZM47.2033 37.136C44.9419 37.136 43.0646 36.784 41.5713 36.08C40.0993 35.376 38.9259 34.4053 38.0513 33.168C37.1979 31.9307 36.6006 30.4907 36.2593 28.848C35.9179 27.184 35.7473 25.392 35.7473 23.472C35.7473 21.808 35.7579 20.1333 35.7793 18.448C35.8219 16.7413 35.8753 15.088 35.9393 13.488C36.0246 12.272 36.4726 11.312 37.2833 10.608C38.0939 9.88267 39.1179 9.52 40.3553 9.52C41.5926 9.52 42.6166 9.88267 43.4273 10.608C44.2593 11.312 44.7073 12.272 44.7713 13.488C44.8566 15.088 44.9099 16.7413 44.9313 18.448C44.9739 20.1333 44.9953 21.808 44.9953 23.472C44.9953 23.9413 45.0166 24.3787 45.0593 24.784C45.1233 25.1893 45.2299 25.552 45.3793 25.872C45.5286 26.1707 45.7419 26.4053 46.0193 26.576C46.3179 26.7467 46.7126 26.832 47.2033 26.832C47.6726 26.832 48.0566 26.7467 48.3553 26.576C48.6539 26.4053 48.8779 26.1707 49.0273 25.872C49.1766 25.552 49.2726 25.1893 49.3153 24.784C49.3793 24.3787 49.4113 23.9413 49.4113 23.472C49.4113 21.808 49.4219 20.1333 49.4433 18.448C49.4859 16.7413 49.5499 15.088 49.6353 13.488C49.6566 12.8907 49.7846 12.3467 50.0193 11.856C50.2539 11.3653 50.5633 10.9493 50.9473 10.608C51.3313 10.2453 51.7793 9.97867 52.2913 9.808C52.8246 9.616 53.4006 9.52 54.0193 9.52C54.6379 9.52 55.2139 9.616 55.7473 9.808C56.2806 9.97867 56.7393 10.2453 57.1233 10.608C57.5286 10.9493 57.8486 11.3653 58.0833 11.856C58.3179 12.3467 58.4459 12.8907 58.4673 13.488C58.5526 15.088 58.6059 16.7413 58.6273 18.448C58.6699 20.1333 58.6913 21.808 58.6913 23.472C58.6913 25.392 58.5099 27.184 58.1473 28.848C57.8059 30.4907 57.1979 31.9307 56.3233 33.168C55.4699 34.4053 54.2966 35.376 52.8033 36.08C51.3313 36.784 49.4646 37.136 47.2033 37.136ZM73.5063 37.104C71.4156 37.104 69.5809 36.7307 68.0023 35.984C66.4236 35.2587 65.1009 34.2667 64.0343 33.008C62.9889 31.7493 62.1889 30.2773 61.6343 28.592C61.1009 26.8853 60.8343 25.072 60.8343 23.152C60.8343 21.232 61.0476 19.4293 61.4743 17.744C61.9009 16.0587 62.6156 14.5867 63.6183 13.328C64.6423 12.048 65.9969 11.0453 67.6823 10.32C69.3889 9.57333 71.5116 9.2 74.0503 9.2C75.5223 9.2 76.8449 9.31733 78.0183 9.552C79.2129 9.78667 80.2583 10.1493 81.1543 10.64C81.8156 11.0027 82.3169 11.4507 82.6583 11.984C82.9996 12.496 83.2023 13.0507 83.2663 13.648C83.3303 14.2453 83.2769 14.864 83.1063 15.504C82.9356 16.1227 82.6689 16.7093 82.3063 17.264C81.9863 17.7547 81.6023 18.192 81.1543 18.576C80.7276 18.96 80.2583 19.2587 79.7463 19.472C79.2343 19.6853 78.6903 19.792 78.1143 19.792C77.5383 19.7707 76.9516 19.6107 76.3542 19.312C76.0769 19.1627 75.7463 19.0453 75.3623 18.96C74.9783 18.8533 74.5409 18.8 74.0503 18.8C73.2823 18.8 72.6316 18.9173 72.0983 19.152C71.5649 19.3867 71.1276 19.7067 70.7863 20.112C70.4663 20.5173 70.2209 20.9867 70.0503 21.52C69.9009 22.032 69.8263 22.576 69.8263 23.152C69.8263 23.728 69.9009 24.2827 70.0503 24.816C70.1996 25.328 70.4236 25.7867 70.7223 26.192C71.0423 26.5973 71.4369 26.9173 71.9063 27.152C72.3969 27.3867 72.9623 27.504 73.6023 27.504C73.8796 27.504 74.1676 27.4827 74.4663 27.44C74.7863 27.376 75.0956 27.3013 75.3943 27.216C75.6929 27.1093 75.9703 27.0027 76.2263 26.896C76.5036 26.7893 76.7276 26.672 76.8983 26.544C77.2823 26.288 77.6023 26.0427 77.8583 25.808C78.1356 25.552 78.3916 25.264 78.6263 24.944C78.7116 24.816 78.7436 24.7093 78.7222 24.624C78.7009 24.5173 78.6583 24.4427 78.5943 24.4C78.5303 24.3573 78.4449 24.3467 78.3383 24.368C78.2529 24.368 78.1676 24.4213 78.0823 24.528C77.9116 24.784 77.6769 25.0613 77.3783 25.36C77.1009 25.6373 76.7809 25.84 76.4183 25.968C75.8423 26.1813 75.3089 26.2773 74.8183 26.256C74.3276 26.2133 73.8903 26.0853 73.5063 25.872C73.1436 25.6587 72.8556 25.3707 72.6423 25.008C72.4503 24.624 72.3543 24.1973 72.3543 23.728C72.3543 22.9173 72.5783 22.3093 73.0263 21.904C73.4743 21.4773 74.1569 21.2107 75.0743 21.104C76.2263 20.9547 77.3889 20.88 78.5623 20.88C79.7569 20.88 80.9196 21.008 82.0503 21.264C82.5623 21.392 83.0316 21.6053 83.4583 21.904C83.9063 22.2027 84.2903 22.5653 84.6103 22.992C84.9303 23.3973 85.1756 23.8667 85.3463 24.4C85.5169 24.912 85.6023 25.456 85.6023 26.032C85.6023 27.568 85.3356 29.008 84.8023 30.352C84.2903 31.696 83.5223 32.8693 82.4983 33.872C81.4956 34.8747 80.2369 35.664 78.7222 36.24C77.2289 36.816 75.4903 37.104 73.5063 37.104ZM99.1408 37.136C96.8794 37.136 95.0021 36.784 93.5088 36.08C92.0368 35.376 90.8634 34.4053 89.9888 33.168C89.1354 31.9307 88.5381 30.4907 88.1968 28.848C87.8554 27.184 87.6848 25.392 87.6848 23.472C87.6848 21.808 87.6954 20.1333 87.7168 18.448C87.7594 16.7413 87.8128 15.088 87.8768 13.488C87.9621 12.272 88.4101 11.312 89.2208 10.608C90.0314 9.88267 91.0554 9.52 92.2928 9.52C93.5301 9.52 94.5541 9.88267 95.3648 10.608C96.1968 11.312 96.6448 12.272 96.7088 13.488C96.7941 15.088 96.8474 16.7413 96.8688 18.448C96.9114 20.1333 96.9328 21.808 96.9328 23.472C96.9328 23.9413 96.9541 24.3787 96.9968 24.784C97.0608 25.1893 97.1674 25.552 97.3168 25.872C97.4661 26.1707 97.6794 26.4053 97.9568 26.576C98.2554 26.7467 98.6501 26.832 99.1408 26.832C99.6101 26.832 99.9941 26.7467 100.293 26.576C100.591 26.4053 100.815 26.1707 100.965 25.872C101.114 25.552 101.21 25.1893 101.253 24.784C101.317 24.3787 101.349 23.9413 101.349 23.472C101.349 21.808 101.359 20.1333 101.381 18.448C101.423 16.7413 101.487 15.088 101.573 13.488C101.594 12.8907 101.722 12.3467 101.957 11.856C102.191 11.3653 102.501 10.9493 102.885 10.608C103.269 10.2453 103.717 9.97867 104.229 9.808C104.762 9.616 105.338 9.52 105.957 9.52C106.575 9.52 107.151 9.616 107.685 9.808C108.218 9.97867 108.677 10.2453 109.061 10.608C109.466 10.9493 109.786 11.3653 110.021 11.856C110.255 12.3467 110.383 12.8907 110.405 13.488C110.49 15.088 110.543 16.7413 110.565 18.448C110.607 20.1333 110.629 21.808 110.629 23.472C110.629 25.392 110.447 27.184 110.085 28.848C109.743 30.4907 109.135 31.9307 108.261 33.168C107.407 34.4053 106.234 35.376 104.741 36.08C103.269 36.784 101.402 37.136 99.1408 37.136Z"/>
</mask>
<path d="M19.688 23.312C19.688 24.016 19.6667 24.7733 19.624 25.584C19.6027 26.3733 19.5707 27.1733 19.528 27.984C19.4853 28.7947 19.432 29.5947 19.368 30.384C19.304 31.1733 19.24 31.9093 19.176 32.592C19.112 33.1893 18.984 33.744 18.792 34.256C18.6 34.7893 18.3227 35.248 17.96 35.632C17.6187 36.016 17.192 36.3147 16.68 36.528C16.1893 36.7627 15.6133 36.88 14.952 36.88C14.2693 36.88 13.672 36.7627 13.16 36.528C12.6693 36.3147 12.2427 36.016 11.88 35.632C11.5387 35.248 11.272 34.7893 11.08 34.256C10.888 33.744 10.76 33.1893 10.696 32.592C10.376 29.5413 10.216 26.4053 10.216 23.184C10.216 19.9627 10.376 16.8267 10.696 13.776C10.76 13.1787 10.888 12.624 11.08 12.112C11.272 11.6 11.5387 11.152 11.88 10.768C12.2427 10.384 12.6693 10.0853 13.16 9.872C13.672 9.63733 14.2693 9.52 14.952 9.52C15.72 9.52 16.3707 9.65867 16.904 9.936C17.4587 10.2133 17.9173 10.5973 18.28 11.088C19.0053 12.0267 19.6453 13.0293 20.2 14.096C20.776 15.1413 21.3307 16.2187 21.864 17.328C22.3973 18.416 22.92 19.5147 23.432 20.624C23.9653 21.7333 24.5413 22.8 25.16 23.824C25.224 23.952 25.2987 24.0373 25.384 24.08C25.4907 24.1227 25.576 24.1227 25.64 24.08C25.7253 24.016 25.7787 23.9307 25.8 23.824C25.8427 23.7173 25.8213 23.5893 25.736 23.44C25.3947 22.7573 25.0853 22.16 24.808 21.648C24.5307 21.1147 24.2213 20.5387 23.88 19.92C23.9227 18.8533 23.976 17.7867 24.04 16.72C24.104 15.632 24.1787 14.6507 24.264 13.776C24.3493 13.1787 24.488 12.624 24.68 12.112C24.8933 11.6 25.1707 11.152 25.512 10.768C25.8747 10.384 26.3013 10.0853 26.792 9.872C27.2827 9.63733 27.8693 9.52 28.552 9.52C29.2133 9.52 29.7893 9.63733 30.28 9.872C30.792 10.0853 31.2187 10.384 31.56 10.768C31.9227 11.152 32.2 11.6 32.392 12.112C32.6053 12.624 32.7547 13.1787 32.84 13.776C33.1387 16.8267 33.288 19.9627 33.288 23.184C33.288 26.4053 33.1387 29.5413 32.84 32.592C32.7547 33.1893 32.6053 33.744 32.392 34.256C32.2 34.7893 31.9227 35.248 31.56 35.632C31.2187 36.016 30.792 36.3147 30.28 36.528C29.7893 36.7627 29.2133 36.88 28.552 36.88C27.6133 36.88 26.8453 36.6667 26.248 36.24C25.672 35.8133 25.2027 35.2693 24.84 34.608C24.4133 33.8827 23.9973 33.04 23.592 32.08C23.1867 31.12 22.7707 30.128 22.344 29.104C21.9387 28.08 21.512 27.0667 21.064 26.064C20.616 25.0613 20.1573 24.144 19.688 23.312ZM47.2033 37.136C44.9419 37.136 43.0646 36.784 41.5713 36.08C40.0993 35.376 38.9259 34.4053 38.0513 33.168C37.1979 31.9307 36.6006 30.4907 36.2593 28.848C35.9179 27.184 35.7473 25.392 35.7473 23.472C35.7473 21.808 35.7579 20.1333 35.7793 18.448C35.8219 16.7413 35.8753 15.088 35.9393 13.488C36.0246 12.272 36.4726 11.312 37.2833 10.608C38.0939 9.88267 39.1179 9.52 40.3553 9.52C41.5926 9.52 42.6166 9.88267 43.4273 10.608C44.2593 11.312 44.7073 12.272 44.7713 13.488C44.8566 15.088 44.9099 16.7413 44.9313 18.448C44.9739 20.1333 44.9953 21.808 44.9953 23.472C44.9953 23.9413 45.0166 24.3787 45.0593 24.784C45.1233 25.1893 45.2299 25.552 45.3793 25.872C45.5286 26.1707 45.7419 26.4053 46.0193 26.576C46.3179 26.7467 46.7126 26.832 47.2033 26.832C47.6726 26.832 48.0566 26.7467 48.3553 26.576C48.6539 26.4053 48.8779 26.1707 49.0273 25.872C49.1766 25.552 49.2726 25.1893 49.3153 24.784C49.3793 24.3787 49.4113 23.9413 49.4113 23.472C49.4113 21.808 49.4219 20.1333 49.4433 18.448C49.4859 16.7413 49.5499 15.088 49.6353 13.488C49.6566 12.8907 49.7846 12.3467 50.0193 11.856C50.2539 11.3653 50.5633 10.9493 50.9473 10.608C51.3313 10.2453 51.7793 9.97867 52.2913 9.808C52.8246 9.616 53.4006 9.52 54.0193 9.52C54.6379 9.52 55.2139 9.616 55.7473 9.808C56.2806 9.97867 56.7393 10.2453 57.1233 10.608C57.5286 10.9493 57.8486 11.3653 58.0833 11.856C58.3179 12.3467 58.4459 12.8907 58.4673 13.488C58.5526 15.088 58.6059 16.7413 58.6273 18.448C58.6699 20.1333 58.6913 21.808 58.6913 23.472C58.6913 25.392 58.5099 27.184 58.1473 28.848C57.8059 30.4907 57.1979 31.9307 56.3233 33.168C55.4699 34.4053 54.2966 35.376 52.8033 36.08C51.3313 36.784 49.4646 37.136 47.2033 37.136ZM73.5063 37.104C71.4156 37.104 69.5809 36.7307 68.0023 35.984C66.4236 35.2587 65.1009 34.2667 64.0343 33.008C62.9889 31.7493 62.1889 30.2773 61.6343 28.592C61.1009 26.8853 60.8343 25.072 60.8343 23.152C60.8343 21.232 61.0476 19.4293 61.4743 17.744C61.9009 16.0587 62.6156 14.5867 63.6183 13.328C64.6423 12.048 65.9969 11.0453 67.6823 10.32C69.3889 9.57333 71.5116 9.2 74.0503 9.2C75.5223 9.2 76.8449 9.31733 78.0183 9.552C79.2129 9.78667 80.2583 10.1493 81.1543 10.64C81.8156 11.0027 82.3169 11.4507 82.6583 11.984C82.9996 12.496 83.2023 13.0507 83.2663 13.648C83.3303 14.2453 83.2769 14.864 83.1063 15.504C82.9356 16.1227 82.6689 16.7093 82.3063 17.264C81.9863 17.7547 81.6023 18.192 81.1543 18.576C80.7276 18.96 80.2583 19.2587 79.7463 19.472C79.2343 19.6853 78.6903 19.792 78.1143 19.792C77.5383 19.7707 76.9516 19.6107 76.3542 19.312C76.0769 19.1627 75.7463 19.0453 75.3623 18.96C74.9783 18.8533 74.5409 18.8 74.0503 18.8C73.2823 18.8 72.6316 18.9173 72.0983 19.152C71.5649 19.3867 71.1276 19.7067 70.7863 20.112C70.4663 20.5173 70.2209 20.9867 70.0503 21.52C69.9009 22.032 69.8263 22.576 69.8263 23.152C69.8263 23.728 69.9009 24.2827 70.0503 24.816C70.1996 25.328 70.4236 25.7867 70.7223 26.192C71.0423 26.5973 71.4369 26.9173 71.9063 27.152C72.3969 27.3867 72.9623 27.504 73.6023 27.504C73.8796 27.504 74.1676 27.4827 74.4663 27.44C74.7863 27.376 75.0956 27.3013 75.3943 27.216C75.6929 27.1093 75.9703 27.0027 76.2263 26.896C76.5036 26.7893 76.7276 26.672 76.8983 26.544C77.2823 26.288 77.6023 26.0427 77.8583 25.808C78.1356 25.552 78.3916 25.264 78.6263 24.944C78.7116 24.816 78.7436 24.7093 78.7222 24.624C78.7009 24.5173 78.6583 24.4427 78.5943 24.4C78.5303 24.3573 78.4449 24.3467 78.3383 24.368C78.2529 24.368 78.1676 24.4213 78.0823 24.528C77.9116 24.784 77.6769 25.0613 77.3783 25.36C77.1009 25.6373 76.7809 25.84 76.4183 25.968C75.8423 26.1813 75.3089 26.2773 74.8183 26.256C74.3276 26.2133 73.8903 26.0853 73.5063 25.872C73.1436 25.6587 72.8556 25.3707 72.6423 25.008C72.4503 24.624 72.3543 24.1973 72.3543 23.728C72.3543 22.9173 72.5783 22.3093 73.0263 21.904C73.4743 21.4773 74.1569 21.2107 75.0743 21.104C76.2263 20.9547 77.3889 20.88 78.5623 20.88C79.7569 20.88 80.9196 21.008 82.0503 21.264C82.5623 21.392 83.0316 21.6053 83.4583 21.904C83.9063 22.2027 84.2903 22.5653 84.6103 22.992C84.9303 23.3973 85.1756 23.8667 85.3463 24.4C85.5169 24.912 85.6023 25.456 85.6023 26.032C85.6023 27.568 85.3356 29.008 84.8023 30.352C84.2903 31.696 83.5223 32.8693 82.4983 33.872C81.4956 34.8747 80.2369 35.664 78.7222 36.24C77.2289 36.816 75.4903 37.104 73.5063 37.104ZM99.1408 37.136C96.8794 37.136 95.0021 36.784 93.5088 36.08C92.0368 35.376 90.8634 34.4053 89.9888 33.168C89.1354 31.9307 88.5381 30.4907 88.1968 28.848C87.8554 27.184 87.6848 25.392 87.6848 23.472C87.6848 21.808 87.6954 20.1333 87.7168 18.448C87.7594 16.7413 87.8128 15.088 87.8768 13.488C87.9621 12.272 88.4101 11.312 89.2208 10.608C90.0314 9.88267 91.0554 9.52 92.2928 9.52C93.5301 9.52 94.5541 9.88267 95.3648 10.608C96.1968 11.312 96.6448 12.272 96.7088 13.488C96.7941 15.088 96.8474 16.7413 96.8688 18.448C96.9114 20.1333 96.9328 21.808 96.9328 23.472C96.9328 23.9413 96.9541 24.3787 96.9968 24.784C97.0608 25.1893 97.1674 25.552 97.3168 25.872C97.4661 26.1707 97.6794 26.4053 97.9568 26.576C98.2554 26.7467 98.6501 26.832 99.1408 26.832C99.6101 26.832 99.9941 26.7467 100.293 26.576C100.591 26.4053 100.815 26.1707 100.965 25.872C101.114 25.552 101.21 25.1893 101.253 24.784C101.317 24.3787 101.349 23.9413 101.349 23.472C101.349 21.808 101.359 20.1333 101.381 18.448C101.423 16.7413 101.487 15.088 101.573 13.488C101.594 12.8907 101.722 12.3467 101.957 11.856C102.191 11.3653 102.501 10.9493 102.885 10.608C103.269 10.2453 103.717 9.97867 104.229 9.808C104.762 9.616 105.338 9.52 105.957 9.52C106.575 9.52 107.151 9.616 107.685 9.808C108.218 9.97867 108.677 10.2453 109.061 10.608C109.466 10.9493 109.786 11.3653 110.021 11.856C110.255 12.3467 110.383 12.8907 110.405 13.488C110.49 15.088 110.543 16.7413 110.565 18.448C110.607 20.1333 110.629 21.808 110.629 23.472C110.629 25.392 110.447 27.184 110.085 28.848C109.743 30.4907 109.135 31.9307 108.261 33.168C107.407 34.4053 106.234 35.376 104.741 36.08C103.269 36.784 101.402 37.136 99.1408 37.136Z" fill="#3782ED"/>
<path d="M19.688 23.312L24.0429 20.8554L14.688 4.27171V23.312H19.688ZM19.624 25.584L14.6309 25.3212L14.6276 25.385L14.6258 25.4489L19.624 25.584ZM19.368 30.384L14.3844 29.9799L14.3844 29.9799L19.368 30.384ZM19.176 32.592L24.1475 33.1247L24.1511 33.0917L24.1542 33.0587L19.176 32.592ZM18.792 34.256L14.1104 32.5004L14.0988 32.5313L14.0876 32.5624L18.792 34.256ZM17.96 35.632L14.3249 32.1989L14.2731 32.2538L14.223 32.3102L17.96 35.632ZM16.68 36.528L14.7569 31.9126L14.6385 31.962L14.5227 32.0173L16.68 36.528ZM13.16 36.528L15.2433 31.9827L15.1986 31.9622L15.1536 31.9426L13.16 36.528ZM11.88 35.632L8.14295 38.9538L8.1931 39.0102L8.24493 39.0651L11.88 35.632ZM11.08 34.256L15.7844 32.5624L15.7732 32.5313L15.7616 32.5004L11.08 34.256ZM10.696 32.592L5.72327 33.1136L5.72445 33.1247L10.696 32.592ZM10.696 13.776L5.72444 13.2433L5.72328 13.2544L10.696 13.776ZM11.08 12.112L15.7616 13.8676L15.7616 13.8676L11.08 12.112ZM11.88 10.768L8.24493 7.33488L8.1931 7.38976L8.14295 7.44618L11.88 10.768ZM13.16 9.872L15.1536 14.4574L15.1987 14.4378L15.2433 14.4173L13.16 9.872ZM16.904 9.936L14.5972 14.3721L14.6324 14.3904L14.6679 14.4081L16.904 9.936ZM18.28 11.088L14.2591 14.06L14.2909 14.1029L14.3236 14.1452L18.28 11.088ZM20.2 14.096L15.7639 16.4028L15.7917 16.4562L15.8208 16.509L20.2 14.096ZM21.864 17.328L17.3577 19.4945L17.366 19.5117L17.3744 19.5288L21.864 17.328ZM23.432 20.624L18.8922 22.7193L18.9087 22.755L18.9257 22.7905L23.432 20.624ZM25.16 23.824L29.6321 21.5879L29.5428 21.4093L29.4396 21.2384L25.16 23.824ZM25.384 24.08L23.1479 28.5521L23.334 28.6451L23.5271 28.7224L25.384 24.08ZM25.64 24.08L28.4135 28.2403L28.529 28.1633L28.64 28.08L25.64 24.08ZM25.8 23.824L21.1576 21.9671L20.9871 22.3933L20.8971 22.8434L25.8 23.824ZM25.736 23.44L21.2639 25.6761L21.3259 25.8002L21.3948 25.9207L25.736 23.44ZM24.808 21.648L20.3719 23.9548L20.3914 23.9923L20.4115 24.0294L24.808 21.648ZM23.88 19.92L18.884 19.7202L18.8282 21.114L19.5021 22.3354L23.88 19.92ZM24.04 16.72L29.031 17.0195L29.0314 17.0136L24.04 16.72ZM24.264 13.776L19.3143 13.0689L19.2985 13.1794L19.2876 13.2905L24.264 13.776ZM24.68 12.112L20.0646 10.1889L20.03 10.2721L19.9984 10.3564L24.68 12.112ZM25.512 10.768L21.8769 7.33488L21.8251 7.38976L21.775 7.44618L25.512 10.768ZM26.792 9.872L28.7856 14.4574L28.8681 14.4215L28.9493 14.3827L26.792 9.872ZM30.28 9.872L28.1227 14.3827L28.2385 14.438L28.3569 14.4874L30.28 9.872ZM31.56 10.768L27.823 14.0898L27.8731 14.1462L27.9249 14.2011L31.56 10.768ZM32.392 12.112L27.7104 13.8676L27.742 13.9519L27.7766 14.0351L32.392 12.112ZM32.84 13.776L37.8162 13.2888L37.8054 13.1786L37.7897 13.0689L32.84 13.776ZM32.84 32.592L37.7897 33.2991L37.8054 33.1894L37.8162 33.0792L32.84 32.592ZM32.392 34.256L27.7766 32.3329L27.7293 32.4466L27.6876 32.5624L32.392 34.256ZM31.56 35.632L27.9249 32.1989L27.8731 32.2538L27.823 32.3102L31.56 35.632ZM30.28 36.528L28.3569 31.9126L28.2385 31.962L28.1227 32.0173L30.28 36.528ZM26.248 36.24L23.2719 40.2578L23.3066 40.2835L23.3418 40.3087L26.248 36.24ZM24.84 34.608L29.2241 32.2038L29.1879 32.1378L29.1497 32.0729L24.84 34.608ZM23.592 32.08L28.1982 30.1351L28.1982 30.1351L23.592 32.08ZM22.344 29.104L17.695 30.9442L17.7114 30.9858L17.7286 31.0271L22.344 29.104ZM21.064 26.064L16.499 28.1037L16.499 28.1037L21.064 26.064ZM14.688 23.312C14.688 23.9163 14.6697 24.5852 14.6309 25.3212L24.6171 25.8468C24.6637 24.9615 24.688 24.1157 24.688 23.312H14.688ZM14.6258 25.4489C14.6057 26.1945 14.5754 26.9519 14.5349 27.7212L24.5211 28.2468C24.5659 27.3948 24.5997 26.5522 24.6222 25.7191L14.6258 25.4489ZM14.5349 27.7212C14.4947 28.4859 14.4444 29.2388 14.3844 29.9799L24.3516 30.7881C24.4196 29.9505 24.476 29.1034 24.5211 28.2468L14.5349 27.7212ZM14.3844 29.9799C14.3218 30.7515 14.2596 31.4664 14.1978 32.1253L24.1542 33.0587C24.2204 32.3523 24.2862 31.5952 24.3516 30.7881L14.3844 29.9799ZM14.2045 32.0593C14.1809 32.2792 14.1409 32.4188 14.1104 32.5004L23.4736 36.0116C23.8271 35.0692 24.0431 34.0995 24.1475 33.1247L14.2045 32.0593ZM14.0876 32.5624C14.0972 32.5357 14.1194 32.4823 14.1613 32.4129C14.2038 32.3427 14.2587 32.269 14.3249 32.1989L21.5951 39.0651C22.4639 38.1452 23.0887 37.0821 23.4964 35.9496L14.0876 32.5624ZM14.223 32.3102C14.4203 32.0882 14.6309 31.9651 14.7569 31.9126L18.6031 41.1434C19.7531 40.6642 20.8171 39.9438 21.697 38.9538L14.223 32.3102ZM14.5227 32.0173C14.8352 31.8679 15.0251 31.88 14.952 31.88V41.88C16.2015 41.88 17.5434 41.6575 18.8373 41.0387L14.5227 32.0173ZM14.952 31.88C14.8388 31.88 14.9781 31.8611 15.2433 31.9827L11.0767 41.0733C12.3659 41.6642 13.6999 41.88 14.952 41.88V31.88ZM15.1536 31.9426C15.2068 31.9658 15.2711 32.0001 15.3393 32.0478C15.4076 32.0957 15.4669 32.1479 15.5151 32.1989L8.24493 39.0651C9.07746 39.9466 10.0646 40.6343 11.1664 41.1133L15.1536 31.9426ZM15.617 32.3102C15.6752 32.3756 15.7176 32.4372 15.7465 32.4869C15.7749 32.5357 15.7851 32.5641 15.7844 32.5624L6.37556 35.9496C6.76103 37.0204 7.3367 38.0468 8.14295 38.9538L15.617 32.3102ZM15.7616 32.5004C15.7311 32.4188 15.6911 32.2792 15.6675 32.0593L5.72445 33.1247C5.8289 34.0995 6.04495 35.0692 6.39835 36.0116L15.7616 32.5004ZM15.6687 32.0704C15.3678 29.2014 15.216 26.2398 15.216 23.184H5.216C5.216 26.5709 5.38423 29.8813 5.72328 33.1136L15.6687 32.0704ZM15.216 23.184C15.216 20.1282 15.3678 17.1666 15.6687 14.2976L5.72328 13.2544C5.38423 16.4867 5.216 19.7971 5.216 23.184H15.216ZM15.6675 14.3087C15.6911 14.0888 15.7311 13.9492 15.7616 13.8676L6.39835 10.3564C6.04495 11.2988 5.8289 12.2685 5.72445 13.2433L15.6675 14.3087ZM15.7616 13.8676C15.7584 13.8763 15.7463 13.906 15.7205 13.9494C15.6943 13.9933 15.6597 14.0418 15.617 14.0898L8.14295 7.44618C7.36743 8.31864 6.79223 9.30605 6.39835 10.3564L15.7616 13.8676ZM15.5151 14.2011C15.4669 14.2521 15.4076 14.3043 15.3393 14.3522C15.2711 14.3999 15.2068 14.4342 15.1536 14.4574L11.1664 5.28665C10.0646 5.76567 9.07746 6.45339 8.24493 7.33488L15.5151 14.2011ZM15.2433 14.4173C14.9781 14.5389 14.8388 14.52 14.952 14.52V4.52C13.6999 4.52 12.3659 4.73579 11.0767 5.32668L15.2433 14.4173ZM14.952 14.52C15.1338 14.52 14.9467 14.5538 14.5972 14.3721L19.2108 5.49992C17.7947 4.76354 16.3062 4.52 14.952 4.52V14.52ZM14.6679 14.4081C14.6098 14.3791 14.5343 14.3328 14.4543 14.2658C14.374 14.1986 14.3084 14.1266 14.2591 14.06L22.3009 8.11604C21.4619 6.98097 20.3876 6.08763 19.1401 5.46386L14.6679 14.4081ZM14.3236 14.1452C14.8646 14.8453 15.3446 15.5965 15.7639 16.4028L24.6361 11.7892C23.946 10.4622 23.1461 9.20798 22.2364 8.03076L14.3236 14.1452ZM15.8208 16.509C16.3508 17.4709 16.8632 18.4659 17.3577 19.4945L26.3703 15.1615C25.7981 13.9714 25.2012 12.8118 24.5792 11.683L15.8208 16.509ZM17.3744 19.5288C17.8904 20.5815 18.3964 21.645 18.8922 22.7193L27.9718 18.5287C27.4436 17.3843 26.9042 16.2505 26.3536 15.1272L17.3744 19.5288ZM18.9257 22.7905C19.526 24.0389 20.1773 25.2457 20.8804 26.4096L29.4396 21.2384C28.9054 20.3543 28.4047 19.4277 27.9383 18.4575L18.9257 22.7905ZM20.6879 26.0601C21.0058 26.6958 21.7186 27.8375 23.1479 28.5521L27.6201 19.6079C28.8787 20.2372 29.4422 21.2082 29.6321 21.5879L20.6879 26.0601ZM23.5271 28.7224C24.3667 29.0582 26.3945 29.5862 28.4135 28.2403L22.8665 19.9197C24.7575 18.6591 26.6147 19.1871 27.2409 19.4376L23.5271 28.7224ZM28.64 28.08C29.7308 27.2619 30.4456 26.0912 30.7029 24.8046L20.8971 22.8434C21.1118 21.7701 21.7199 20.7701 22.64 20.08L28.64 28.08ZM30.4424 25.6809C31.2885 23.5658 30.5329 21.7568 30.0772 20.9593L21.3948 25.9207C21.1097 25.4219 20.3969 23.8689 21.1576 21.9671L30.4424 25.6809ZM30.2081 21.2039C29.8494 20.4864 29.5143 19.8387 29.2045 19.2666L20.4115 24.0294C20.6563 24.4813 20.9399 25.0282 21.2639 25.6761L30.2081 21.2039ZM29.2441 19.3412C28.9449 18.7658 28.6157 18.1532 28.2579 17.5046L19.5021 22.3354C19.8269 22.9241 20.1165 23.4635 20.3719 23.9548L29.2441 19.3412ZM28.876 20.1198C28.9173 19.0864 28.969 18.053 29.031 17.0195L19.049 16.4205C18.983 17.5204 18.928 18.6202 18.884 19.7202L28.876 20.1198ZM29.0314 17.0136C29.0925 15.9752 29.1625 15.0593 29.2404 14.2615L19.2876 13.2905C19.1948 14.242 19.1155 15.2888 19.0486 16.4264L29.0314 17.0136ZM29.2137 14.4831C29.2531 14.2075 29.309 14.008 29.3616 13.8676L19.9984 10.3564C19.667 11.24 19.4456 12.1498 19.3143 13.0689L29.2137 14.4831ZM29.2954 14.0351C29.3051 14.0118 29.3078 14.0101 29.2993 14.0238C29.2906 14.0379 29.2741 14.0616 29.249 14.0898L21.775 7.44618C21.0371 8.27627 20.4742 9.20596 20.0646 10.1889L29.2954 14.0351ZM29.1471 14.2011C29.0989 14.2521 29.0396 14.3043 28.9713 14.3522C28.9031 14.3999 28.8388 14.4342 28.7856 14.4574L24.7984 5.28665C23.6966 5.76567 22.7095 6.45339 21.8769 7.33488L29.1471 14.2011ZM28.9493 14.3827C28.6171 14.5415 28.4307 14.52 28.552 14.52V4.52C27.308 4.52 25.9482 4.73315 24.6347 5.36133L28.9493 14.3827ZM28.552 14.52C28.6251 14.52 28.4352 14.5321 28.1227 14.3827L32.4373 5.36133C31.1434 4.74254 29.8015 4.52 28.552 4.52V14.52ZM28.3569 14.4874C28.2309 14.4349 28.0203 14.3118 27.823 14.0898L35.297 7.44618C34.4171 6.4562 33.3531 5.73577 32.2031 5.25661L28.3569 14.4874ZM27.9249 14.2011C27.8749 14.1481 27.8283 14.0877 27.7887 14.0238C27.7493 13.9602 27.7246 13.9055 27.7104 13.8676L37.0737 10.3564C36.6563 9.24358 36.031 8.21994 35.1951 7.33488L27.9249 14.2011ZM27.7766 14.0351C27.8141 14.125 27.8594 14.2673 27.8903 14.4831L37.7897 13.0689C37.6499 12.0901 37.3966 11.123 37.0074 10.1889L27.7766 14.0351ZM27.8638 14.2632C28.1458 17.144 28.288 20.1172 28.288 23.184H38.288C38.288 19.8082 38.1315 16.5093 37.8162 13.2888L27.8638 14.2632ZM28.288 23.184C28.288 26.2508 28.1458 29.224 27.8638 32.1048L37.8162 33.0792C38.1315 29.8587 38.288 26.5598 38.288 23.184H28.288ZM27.8903 31.8849C27.8594 32.1007 27.8141 32.243 27.7766 32.3329L37.0074 36.1791C37.3966 35.245 37.6499 34.2779 37.7897 33.2991L27.8903 31.8849ZM27.6876 32.5624C27.6972 32.5357 27.7194 32.4823 27.7613 32.4129C27.8038 32.3427 27.8587 32.269 27.9249 32.1989L35.1951 39.0651C36.0639 38.1452 36.6887 37.0821 37.0964 35.9496L27.6876 32.5624ZM27.823 32.3102C28.0203 32.0882 28.2309 31.9651 28.3569 31.9126L32.2031 41.1434C33.3531 40.6642 34.4171 39.9438 35.297 38.9538L27.823 32.3102ZM28.1227 32.0173C28.4352 31.8679 28.6251 31.88 28.552 31.88V41.88C29.8015 41.88 31.1434 41.6575 32.4373 41.0387L28.1227 32.0173ZM28.552 31.88C28.4571 31.88 28.4893 31.8688 28.6102 31.9024C28.7402 31.9385 28.9387 32.0174 29.1542 32.1713L23.3418 40.3087C24.9966 41.4907 26.8622 41.88 28.552 41.88V31.88ZM29.2241 32.2222C29.2279 32.225 29.2329 32.229 29.2383 32.234C29.2437 32.239 29.2476 32.2433 29.2498 32.2458C29.2519 32.2483 29.2509 32.2474 29.2469 32.2416C29.2429 32.2358 29.235 32.2237 29.2241 32.2038L20.4559 37.0122C21.1473 38.2729 22.0853 39.3789 23.2719 40.2578L29.2241 32.2222ZM29.1497 32.0729C28.8574 31.576 28.5371 30.9378 28.1982 30.1351L18.9858 34.0249C19.4575 35.1422 19.9693 36.1893 20.5303 37.1431L29.1497 32.0729ZM28.1982 30.1351C27.7962 29.1828 27.3832 28.1981 26.9594 27.1809L17.7286 31.0271C18.1581 32.0579 18.5772 33.0572 18.9858 34.0249L28.1982 30.1351ZM26.993 27.2638C26.5612 26.1729 26.1066 25.093 25.629 24.0243L16.499 28.1037C16.9174 29.0403 17.3161 29.9871 17.695 30.9442L26.993 27.2638ZM25.629 24.0243C25.1267 22.9 24.599 21.8413 24.0429 20.8554L15.3331 25.7686C15.7156 26.4467 16.1053 27.2227 16.499 28.1037L25.629 24.0243ZM41.5713 36.08L39.414 40.5907L39.4265 40.5967L39.4392 40.6026L41.5713 36.08ZM38.0513 33.168L33.9352 36.0067L33.9516 36.0305L33.9684 36.0542L38.0513 33.168ZM36.2593 28.848L31.3612 29.8527L31.3638 29.8652L36.2593 28.848ZM35.7792 18.448L30.7808 18.323L30.78 18.3539L30.7796 18.3847L35.7792 18.448ZM35.9393 13.488L30.9515 13.138L30.9463 13.213L30.9432 13.2882L35.9393 13.488ZM37.2833 10.608L40.5617 14.3832L40.5896 14.3589L40.6172 14.3342L37.2833 10.608ZM43.4272 10.608L40.0933 14.3342L40.1448 14.3803L40.1975 14.4249L43.4272 10.608ZM44.7713 13.488L39.7782 13.7508L39.7783 13.7543L44.7713 13.488ZM44.9313 18.448L39.9316 18.5105L39.932 18.5425L39.9329 18.5745L44.9313 18.448ZM45.0592 24.784L40.0867 25.3074L40.1003 25.4361L40.1204 25.5638L45.0592 24.784ZM45.3792 25.872L40.8483 27.9864L40.8769 28.0476L40.9071 28.1081L45.3792 25.872ZM46.0192 26.576L43.3988 30.8343L43.468 30.8769L43.5386 30.9172L46.0192 26.576ZM49.0273 25.872L53.4994 28.1081L53.5296 28.0476L53.5582 27.9864L49.0273 25.872ZM49.3153 24.784L44.3764 24.0042L44.3563 24.1319L44.3427 24.2606L49.3153 24.784ZM49.4433 18.448L44.4448 18.323L44.444 18.3539L44.4436 18.3847L49.4433 18.448ZM49.6353 13.488L54.6282 13.7543L54.6305 13.7104L54.6321 13.6665L49.6353 13.488ZM50.9473 10.608L54.2691 14.345L54.3255 14.2949L54.3804 14.2431L50.9473 10.608ZM52.2913 9.808L53.8724 14.5514L53.9289 14.5326L53.9848 14.5124L52.2913 9.808ZM55.7473 9.808L54.0537 14.5124L54.138 14.5428L54.2234 14.5701L55.7473 9.808ZM57.1233 10.608L53.6901 14.2431L53.7937 14.3408L53.9026 14.4326L57.1233 10.608ZM58.0833 11.856L62.5939 9.69873L62.5939 9.69872L58.0833 11.856ZM58.4673 13.488L53.4704 13.6665L53.472 13.7104L53.4743 13.7543L58.4673 13.488ZM58.6273 18.448L53.6276 18.5105L53.628 18.5425L53.6289 18.5745L58.6273 18.448ZM58.1473 28.848L53.2619 27.7833L53.2568 27.807L53.2518 27.8308L58.1473 28.848ZM56.3232 33.168L52.2404 30.2818L52.2236 30.3055L52.2072 30.3293L56.3232 33.168ZM52.8033 36.08L50.6712 31.5574L50.6585 31.5633L50.646 31.5693L52.8033 36.08ZM47.2033 32.136C45.422 32.136 44.331 31.8532 43.7033 31.5574L39.4392 40.6026C41.7982 41.7148 44.4618 42.136 47.2033 42.136V32.136ZM43.7285 31.5693C42.9656 31.2044 42.4785 30.769 42.1341 30.2818L33.9684 36.0542C35.3733 38.0417 37.2329 39.5476 39.414 40.5907L43.7285 31.5693ZM42.1673 30.3293C41.7343 29.7015 41.3761 28.8963 41.1547 27.8308L31.3638 29.8652C31.8251 32.085 32.6615 34.1598 33.9352 36.0067L42.1673 30.3293ZM41.1573 27.8433C40.8919 26.5494 40.7472 25.0974 40.7472 23.472H30.7472C30.7472 25.6866 30.944 27.8186 31.3612 29.8527L41.1573 27.8433ZM40.7472 23.472C40.7472 21.8294 40.7578 20.1758 40.7788 18.5113L30.7796 18.3847C30.7581 20.0909 30.7472 21.7866 30.7472 23.472H40.7472ZM40.7777 18.573C40.8198 16.8896 40.8723 15.2613 40.9353 13.6878L30.9432 13.2882C30.8782 14.9147 30.8241 16.593 30.7808 18.323L40.7777 18.573ZM40.927 13.838C40.9331 13.7503 40.9412 13.8183 40.8702 13.9704C40.7936 14.1345 40.6783 14.2819 40.5617 14.3832L34.0048 6.83283C32.0541 8.52689 31.116 10.7937 30.9515 13.138L40.927 13.838ZM40.6172 14.3342C40.5828 14.365 40.5371 14.3998 40.4816 14.4326C40.4262 14.4655 40.3732 14.4893 40.3285 14.5051C40.2355 14.5381 40.2273 14.52 40.3553 14.52V4.52C38.0687 4.52 35.8032 5.22304 33.9493 6.88179L40.6172 14.3342ZM40.3553 14.52C40.4832 14.52 40.475 14.5381 40.382 14.5051C40.3373 14.4893 40.2843 14.4655 40.2289 14.4326C40.1734 14.3998 40.1277 14.365 40.0933 14.3342L46.7612 6.88179C44.9073 5.22304 42.6418 4.52 40.3553 4.52V14.52ZM40.1975 14.4249C40.0782 14.3239 39.9469 14.1644 39.8563 13.9704C39.7714 13.7883 39.7749 13.6891 39.7782 13.7508L49.7643 13.2252C49.6372 10.8104 48.6708 8.49506 46.657 6.79107L40.1975 14.4249ZM39.7783 13.7543C39.8598 15.2822 39.9111 16.8674 39.9316 18.5105L49.9309 18.3855C49.9087 16.6152 49.8533 14.8938 49.7642 13.2217L39.7783 13.7543ZM39.9329 18.5745C39.9745 20.2183 39.9953 21.8507 39.9953 23.472H49.9953C49.9953 21.7653 49.9734 20.0484 49.9296 18.3215L39.9329 18.5745ZM39.9953 23.472C39.9953 24.0906 40.0233 24.7045 40.0867 25.3074L50.0318 24.2606C50.0099 24.0528 49.9953 23.792 49.9953 23.472H39.9953ZM40.1204 25.5638C40.2458 26.358 40.4724 27.1808 40.8483 27.9864L49.9102 23.7576C49.9875 23.9232 50.0007 24.0206 49.9981 24.0042L40.1204 25.5638ZM40.9071 28.1081C41.462 29.2178 42.3068 30.1623 43.3988 30.8343L48.6397 22.3177C49.177 22.6483 49.5952 23.1235 49.8514 23.6359L40.9071 28.1081ZM43.5386 30.9172C44.8474 31.6651 46.1922 31.832 47.2033 31.832V21.832C47.2329 21.832 47.7885 21.8282 48.4999 22.2348L43.5386 30.9172ZM47.2033 31.832C48.2389 31.832 49.5558 31.6488 50.8359 30.9172L45.8746 22.2348C46.5574 21.8446 47.1062 21.832 47.2033 21.832V31.832ZM50.8359 30.9172C51.9643 30.2725 52.8947 29.3175 53.4994 28.1081L44.5551 23.6359C44.8611 23.0239 45.3436 22.5382 45.8746 22.2348L50.8359 30.9172ZM53.5582 27.9864C53.9749 27.0935 54.1959 26.1805 54.2878 25.3074L44.3427 24.2606C44.3493 24.1982 44.3783 24.0105 44.4963 23.7576L53.5582 27.9864ZM54.2541 25.5638C54.3641 24.867 54.4113 24.1661 54.4113 23.472H44.4113C44.4113 23.7166 44.3944 23.8904 44.3764 24.0042L54.2541 25.5638ZM54.4113 23.472C54.4113 21.8294 54.4218 20.1758 54.4429 18.5113L44.4436 18.3847C44.4221 20.0909 44.4113 21.7866 44.4113 23.472H54.4113ZM54.4417 18.573C54.4833 16.9104 54.5455 15.3043 54.6282 13.7543L44.6423 13.2217C44.5543 14.8717 44.4886 16.5723 44.4448 18.323L54.4417 18.573ZM54.6321 13.6665C54.6319 13.6711 54.63 13.7108 54.6143 13.7772C54.5984 13.8447 54.5716 13.9262 54.5299 14.0133L45.5086 9.69872C44.9496 10.8675 44.6818 12.0946 44.6384 13.3095L54.6321 13.6665ZM54.5299 14.0133C54.515 14.0446 54.4865 14.0965 54.4396 14.1595C54.3923 14.2231 54.3347 14.2867 54.2691 14.345L47.6254 6.87095C46.7152 7.68008 46.0133 8.64332 45.5086 9.69872L54.5299 14.0133ZM54.3804 14.2431C54.3091 14.3103 54.2241 14.3757 54.1287 14.4325C54.0336 14.4891 53.9449 14.5272 53.8724 14.5514L50.7101 5.06458C49.523 5.4603 48.4392 6.09929 47.5141 6.97294L54.3804 14.2431ZM53.9848 14.5124C53.973 14.5167 53.9631 14.5196 53.9557 14.5216C53.9483 14.5235 53.9446 14.5241 53.9452 14.524C53.946 14.5238 53.9691 14.52 54.0192 14.52V4.52C52.876 4.52 51.7217 4.69889 50.5977 5.10356L53.9848 14.5124ZM54.0192 14.52C54.0694 14.52 54.0925 14.5238 54.0933 14.524C54.0939 14.5241 54.0902 14.5235 54.0828 14.5216C54.0754 14.5196 54.0655 14.5167 54.0537 14.5124L57.4408 5.10356C56.3168 4.69889 55.1625 4.52 54.0192 4.52V14.52ZM54.2234 14.5701C54.1644 14.5512 54.0785 14.5169 53.9781 14.4585C53.8769 14.3997 53.7786 14.3267 53.6901 14.2431L60.5564 6.97294C59.5958 6.06572 58.4733 5.43058 57.2711 5.04588L54.2234 14.5701ZM53.9026 14.4326C53.8333 14.3742 53.7652 14.3039 53.7041 14.2246C53.6434 14.1455 53.6006 14.0719 53.5726 14.0133L62.5939 9.69872C62.0609 8.58433 61.3074 7.5948 60.3439 6.78344L53.9026 14.4326ZM53.5726 14.0133C53.5309 13.9262 53.5041 13.8447 53.4882 13.7772C53.4725 13.7108 53.4706 13.6711 53.4704 13.6665L63.4641 13.3095C63.4207 12.0946 63.1529 10.8675 62.5939 9.69873L53.5726 14.0133ZM53.4743 13.7543C53.5558 15.2822 53.6071 16.8674 53.6276 18.5105L63.6269 18.3855C63.6047 16.6152 63.5493 14.8938 63.4602 13.2217L53.4743 13.7543ZM53.6289 18.5745C53.6705 20.2183 53.6913 21.8507 53.6913 23.472H63.6913C63.6913 21.7653 63.6694 20.0484 63.6256 18.3215L53.6289 18.5745ZM53.6913 23.472C53.6913 25.0785 53.5394 26.51 53.2619 27.7833L63.0326 29.9127C63.4804 27.858 63.6913 25.7055 63.6913 23.472H53.6913ZM53.2518 27.8308C53.0351 28.8737 52.6782 29.6625 52.2404 30.2818L60.4061 36.0542C61.7177 34.1988 62.5767 32.1076 63.0427 29.8652L53.2518 27.8308ZM52.2072 30.3293C51.9033 30.7699 51.4469 31.1917 50.6712 31.5574L54.9353 40.6026C57.1463 39.5603 59.0365 38.0407 60.4393 36.0067L52.2072 30.3293ZM50.646 31.5693C50.0553 31.8518 48.9889 32.136 47.2033 32.136V42.136C49.9403 42.136 52.6072 41.7162 54.9605 40.5907L50.646 31.5693ZM68.0023 35.984L70.1401 31.4641L70.115 31.4522L70.0898 31.4406L68.0023 35.984ZM64.0342 33.008L60.1878 36.2025L60.2037 36.2216L60.2198 36.2406L64.0342 33.008ZM61.6343 28.592L56.8619 30.0834L56.8731 30.1193L56.8849 30.1551L61.6343 28.592ZM61.4743 17.744L56.6272 16.5169L61.4743 17.744ZM63.6183 13.328L59.7139 10.2045L59.7074 10.2126L63.6183 13.328ZM67.6823 10.32L69.6589 14.9127L69.6726 14.9068L69.6863 14.9008L67.6823 10.32ZM78.0182 9.552L77.0377 14.4549L77.0461 14.4566L77.0545 14.4582L78.0182 9.552ZM81.1543 10.64L83.5584 6.25593L83.5558 6.25452L81.1543 10.64ZM82.6582 11.984L78.4469 14.6793L78.4721 14.7186L78.498 14.7575L82.6582 11.984ZM83.2663 13.648L78.2947 14.1807L78.2947 14.1807L83.2663 13.648ZM83.1062 15.504L87.9262 16.8336L87.9319 16.813L87.9374 16.7923L83.1062 15.504ZM82.3063 17.264L78.1214 14.5278L78.1182 14.5327L82.3063 17.264ZM81.1543 18.576L77.9003 14.7797L77.8544 14.8191L77.8094 14.8595L81.1543 18.576ZM79.7462 19.472L77.8232 14.8566L77.8232 14.8566L79.7462 19.472ZM78.1143 19.792L77.9292 24.7886L78.0217 24.792H78.1143V19.792ZM76.3542 19.312L73.9837 23.7144L74.0504 23.7503L74.1182 23.7841L76.3542 19.312ZM75.3623 18.96L74.024 23.7776L74.15 23.8126L74.2776 23.8409L75.3623 18.96ZM70.7863 20.112L66.9617 16.8913L66.9108 16.9518L66.8618 17.0138L70.7863 20.112ZM70.0503 21.52L65.2881 19.9961L65.2684 20.0578L65.2503 20.12L70.0503 21.52ZM70.0503 24.816L65.2354 26.1641L65.2427 26.1901L65.2503 26.216L70.0503 24.816ZM70.7223 26.192L66.697 29.158L66.7463 29.2249L66.7978 29.2902L70.7223 26.192ZM71.9062 27.152L69.6702 31.6241L69.7094 31.6437L69.749 31.6627L71.9062 27.152ZM74.4662 27.44L75.1734 32.3897L75.3107 32.3701L75.4468 32.3429L74.4662 27.44ZM75.3942 27.216L76.7679 32.0236L76.9235 31.9792L77.0759 31.9247L75.3942 27.216ZM76.2262 26.896L74.4314 22.2293L74.3669 22.2541L74.3032 22.2806L76.2262 26.896ZM76.8983 26.544L74.1247 22.3837L74.0093 22.4607L73.8983 22.544L76.8983 26.544ZM77.8583 25.808L81.2369 29.4938L81.2433 29.4879L81.2497 29.482L77.8583 25.808ZM78.6263 24.944L82.6583 27.9008L82.7244 27.8106L82.7865 27.7175L78.6263 24.944ZM78.7223 24.624L73.8193 25.6046L73.8427 25.7213L73.8716 25.8367L78.7223 24.624ZM78.5943 24.4L81.3678 20.2398L81.3677 20.2397L78.5943 24.4ZM78.3382 24.368V29.368H78.8333L79.3188 29.2709L78.3382 24.368ZM78.0823 24.528L74.1779 21.4045L74.0424 21.574L73.922 21.7545L78.0823 24.528ZM77.3783 25.36L73.8427 21.8245L73.8427 21.8245L77.3783 25.36ZM76.4183 25.968L74.7542 21.253L74.7178 21.2659L74.6817 21.2793L76.4183 25.968ZM74.8183 26.256L74.3851 31.2372L74.4929 31.2466L74.6011 31.2513L74.8183 26.256ZM73.5062 25.872L70.9711 30.1817L71.0242 30.2129L71.078 30.2428L73.5062 25.872ZM72.6423 25.008L68.1701 27.2441L68.2463 27.3963L68.3326 27.5431L72.6423 25.008ZM73.0263 21.904L76.3808 25.6117L76.4282 25.5688L76.4745 25.5247L73.0263 21.904ZM75.0742 21.104L75.6518 26.0705L75.6844 26.0667L75.717 26.0625L75.0742 21.104ZM82.0502 21.264L83.2629 16.4133L83.2088 16.3998L83.1544 16.3874L82.0502 21.264ZM83.4583 21.904L80.5909 26.0002L80.6375 26.0327L80.6847 26.0642L83.4583 21.904ZM84.6103 22.992L80.6102 25.992L80.6474 26.0416L80.6858 26.0902L84.6103 22.992ZM85.3463 24.4L80.5841 25.9239L80.5933 25.9526L80.6028 25.9811L85.3463 24.4ZM84.8023 30.352L80.1548 28.5078L80.1421 28.5398L80.1298 28.572L84.8023 30.352ZM82.4983 33.872L79.0001 30.2994L78.9813 30.3179L78.9627 30.3365L82.4983 33.872ZM78.7223 36.24L76.945 31.5665L76.9339 31.5707L76.9229 31.575L78.7223 36.24ZM73.5062 32.104C72.0111 32.104 70.9315 31.8384 70.1401 31.4641L65.8644 40.5039C68.2303 41.6229 70.8201 42.104 73.5062 42.104V32.104ZM70.0898 31.4406C69.1396 31.0041 68.4175 30.4466 67.8487 29.7754L60.2198 36.2406C61.7843 38.0867 63.7075 39.5133 65.9147 40.5274L70.0898 31.4406ZM67.8807 29.8135C67.2686 29.0765 66.7589 28.1692 66.3836 27.0289L56.8849 30.1551C57.6189 32.3855 58.7092 34.4222 60.1878 36.2025L67.8807 29.8135ZM66.4067 27.1006C66.0349 25.911 65.8343 24.6035 65.8343 23.152H55.8343C55.8343 25.5405 56.1669 27.8596 56.8619 30.0834L66.4067 27.1006ZM65.8343 23.152C65.8343 21.6032 66.0062 20.216 66.3213 18.9711L56.6272 16.5169C56.089 18.6426 55.8343 20.8608 55.8343 23.152H65.8343ZM66.3213 18.9711C66.5878 17.9185 67.0038 17.1027 67.5291 16.4434L59.7074 10.2126C58.2274 12.0706 57.214 14.1989 56.6272 16.5169L66.3213 18.9711ZM67.5226 16.4515C67.9756 15.8853 68.6356 15.3531 69.6589 14.9127L65.7056 5.72729C63.3582 6.73757 61.3089 8.21074 59.7139 10.2045L67.5226 16.4515ZM69.6863 14.9008C70.5761 14.5115 71.966 14.2 74.0502 14.2V4.2C71.0572 4.2 68.2017 4.63515 65.6782 5.73921L69.6863 14.9008ZM74.0502 14.2C75.265 14.2 76.2509 14.2975 77.0377 14.4549L78.9988 4.64909C77.439 4.33712 75.7795 4.2 74.0502 4.2V14.2ZM77.0545 14.4582C77.8396 14.6125 78.383 14.8231 78.7527 15.0255L83.5558 6.25452C82.1335 5.47561 80.5862 4.96088 78.982 4.64575L77.0545 14.4582ZM78.7501 15.0241C78.7874 15.0445 78.7591 15.0339 78.6946 14.9763C78.6274 14.9162 78.5358 14.8182 78.4469 14.6793L86.8696 9.28874C85.9978 7.9266 84.8139 6.94443 83.5584 6.25593L78.7501 15.0241ZM78.498 14.7575C78.4579 14.6974 78.4103 14.6105 78.3699 14.5C78.3294 14.3889 78.3053 14.2791 78.2947 14.1807L88.2378 13.1153C88.0858 11.6966 87.5956 10.3762 86.8185 9.21049L78.498 14.7575ZM78.2947 14.1807C78.2931 14.1657 78.2925 14.1532 78.2924 14.1439C78.2924 14.1346 78.2928 14.1299 78.2927 14.1306C78.2927 14.1312 78.2903 14.1585 78.2751 14.2157L87.9374 16.7923C88.2501 15.6199 88.3736 14.3827 88.2378 13.1153L78.2947 14.1807ZM78.2863 14.1744C78.2577 14.2779 78.2102 14.392 78.1214 14.5278L86.4911 20.0002C87.1277 19.0267 87.6135 17.9674 87.9262 16.8336L78.2863 14.1744ZM78.1182 14.5327C78.0593 14.6229 77.9906 14.7023 77.9003 14.7797L84.4082 22.3723C85.2139 21.6817 85.9132 20.8864 86.4943 19.9953L78.1182 14.5327ZM77.8094 14.8595C77.8021 14.8661 77.7976 14.8696 77.796 14.8708C77.7945 14.872 77.7951 14.8714 77.7979 14.8697C77.8006 14.8679 77.8046 14.8656 77.8094 14.8631C77.8143 14.8605 77.819 14.8584 77.8232 14.8566L81.6693 24.0874C82.7207 23.6493 83.6675 23.0409 84.4991 22.2925L77.8094 14.8595ZM77.8232 14.8566C77.8768 14.8343 77.9347 14.8167 77.9922 14.8054C78.0492 14.7942 78.0919 14.792 78.1143 14.792V24.792C79.3245 24.792 80.5245 24.5644 81.6693 24.0874L77.8232 14.8566ZM78.2993 14.7954C78.4139 14.7997 78.5024 14.8171 78.5578 14.8322C78.6114 14.8468 78.6229 14.8562 78.5903 14.8399L74.1182 23.7841C75.2532 24.3517 76.5354 24.737 77.9292 24.7886L78.2993 14.7954ZM78.7248 14.9096C77.957 14.4963 77.1732 14.2405 76.4469 14.0791L74.2776 23.8409C74.3193 23.8502 74.1968 23.8291 73.9837 23.7144L78.7248 14.9096ZM76.7005 14.1424C75.7939 13.8906 74.8933 13.8 74.0502 13.8V23.8C74.1157 23.8 74.1442 23.8036 74.141 23.8032C74.1376 23.8028 74.0959 23.7976 74.024 23.7776L76.7005 14.1424ZM74.0502 13.8C72.7989 13.8 71.42 13.9878 70.0846 14.5754L74.1119 23.7286C73.9735 23.7895 73.8849 23.8066 73.8736 23.8086C73.8637 23.8104 73.9174 23.8 74.0502 23.8V13.8ZM70.0846 14.5754C68.9226 15.0867 67.8425 15.8453 66.9617 16.8913L74.6108 23.3327C74.4126 23.568 74.2073 23.6866 74.1119 23.7286L70.0846 14.5754ZM66.8618 17.0138C66.1404 17.9277 65.626 18.9403 65.2881 19.9961L74.8124 23.0439C74.8153 23.0348 74.8109 23.0507 74.7934 23.0843C74.7755 23.1184 74.7484 23.1624 74.7107 23.2102L66.8618 17.0138ZM65.2503 20.12C64.9581 21.1217 64.8262 22.1399 64.8262 23.152H74.8262C74.8262 23.0121 74.8437 22.9423 74.8503 22.92L65.2503 20.12ZM64.8262 23.152C64.8262 24.1654 64.9584 25.1747 65.2354 26.1641L74.8651 23.4679C74.8435 23.3906 74.8262 23.2906 74.8262 23.152H64.8262ZM65.2503 26.216C65.5541 27.2577 66.0299 28.2527 66.697 29.158L74.7475 23.226C74.7794 23.2693 74.8046 23.3121 74.8231 23.3498C74.8413 23.3871 74.8488 23.4112 74.8503 23.416L65.2503 26.216ZM66.7978 29.2902C67.5804 30.2815 68.5549 31.0665 69.6702 31.6241L74.1423 22.6799C74.2218 22.7196 74.3135 22.7762 74.4073 22.8522C74.5013 22.9285 74.5817 23.0116 74.6467 23.0938L66.7978 29.2902ZM69.749 31.6627C71.0221 32.2716 72.3466 32.504 73.6022 32.504V22.504C73.5779 22.504 73.7717 22.5018 74.0635 22.6413L69.749 31.6627ZM73.6022 32.504C74.1357 32.504 74.6607 32.463 75.1734 32.3897L73.7591 22.4903C73.6745 22.5023 73.6234 22.504 73.6022 22.504V32.504ZM75.4468 32.3429C75.8925 32.2538 76.3332 32.1478 76.7679 32.0236L74.0206 22.4084C73.858 22.4549 73.68 22.4982 73.4857 22.5371L75.4468 32.3429ZM77.0759 31.9247C77.4446 31.793 77.8034 31.6555 78.1493 31.5114L74.3032 22.2806C74.1371 22.3498 73.9412 22.4256 73.7126 22.5073L77.0759 31.9247ZM78.0211 31.5627C78.5739 31.3501 79.2458 31.0334 79.8982 30.544L73.8983 22.544C74.0627 22.4206 74.1987 22.3426 74.2822 22.2988C74.3669 22.2545 74.4207 22.2334 74.4314 22.2293L78.0211 31.5627ZM79.6718 30.7043C80.2045 30.3491 80.7417 29.9476 81.2369 29.4938L74.4796 22.1222C74.4628 22.1377 74.36 22.2269 74.1247 22.3837L79.6718 30.7043ZM81.2497 29.482C81.7748 28.9972 82.2433 28.4667 82.6583 27.9008L74.5942 21.9872C74.5399 22.0613 74.4963 22.1068 74.4668 22.134L81.2497 29.482ZM82.7865 27.7175C83.1037 27.2417 84.1188 25.5947 83.573 23.4113L73.8716 25.8367C73.6131 24.8031 73.7505 23.9134 73.9251 23.3313C74.094 22.7683 74.3306 22.3736 74.466 22.1705L82.7865 27.7175ZM83.6252 23.6434C83.4527 22.781 82.9243 21.2775 81.3678 20.2398L75.8207 28.5602C74.3922 27.6079 73.9492 26.2536 73.8193 25.6046L83.6252 23.6434ZM81.3677 20.2397C79.8112 19.2021 78.2201 19.2926 77.3577 19.4651L79.3188 29.2709C78.6697 29.4007 77.2493 29.5126 75.8208 28.5603L81.3677 20.2397ZM78.3382 19.368C76.0118 19.368 74.6435 20.8225 74.1779 21.4045L81.9866 27.6515C81.6917 28.0201 80.4941 29.368 78.3382 29.368V19.368ZM73.922 21.7545C73.9592 21.6988 73.9769 21.6799 73.9613 21.6983C73.9465 21.7158 73.9094 21.7578 73.8427 21.8245L80.9138 28.8955C81.3658 28.4435 81.8359 27.9114 82.2425 27.3015L73.922 21.7545ZM73.8427 21.8245C74.0825 21.5847 74.3985 21.3786 74.7542 21.253L78.0823 30.683C79.1633 30.3014 80.1193 29.69 80.9138 28.8955L73.8427 21.8245ZM74.6817 21.2793C74.5788 21.3174 74.7168 21.2469 75.0354 21.2607L74.6011 31.2513C75.901 31.3078 77.1057 31.0453 78.1548 30.6567L74.6817 21.2793ZM75.2514 21.2748C75.3761 21.2856 75.6332 21.3339 75.9345 21.5012L71.078 30.2428C72.1473 30.8368 73.279 31.141 74.3851 31.2372L75.2514 21.2748ZM76.0414 21.5623C76.4115 21.78 76.7342 22.1028 76.9519 22.4729L68.3326 27.5431C68.977 28.6385 69.8757 29.5373 70.9711 30.1817L76.0414 21.5623ZM77.1144 22.7719C77.301 23.1452 77.3542 23.4947 77.3542 23.728H67.3543C67.3543 24.9 67.5995 26.1028 68.1701 27.2441L77.1144 22.7719ZM77.3542 23.728C77.3542 23.7703 77.3499 24.0237 77.214 24.3925C77.0675 24.7902 76.7989 25.2334 76.3808 25.6117L69.6717 18.1963C67.8519 19.8428 67.3543 22.0103 67.3543 23.728H77.3542ZM76.4745 25.5247C76.1497 25.8341 75.8477 25.9811 75.6935 26.0413C75.5483 26.098 75.5137 26.0866 75.6518 26.0705L74.4967 16.1375C73.0077 16.3106 71.1141 16.8204 69.578 18.2833L76.4745 25.5247ZM75.717 26.0625C76.6537 25.9411 77.6017 25.88 78.5622 25.88V15.88C77.1762 15.88 75.7988 15.9682 74.4315 16.1455L75.717 26.0625ZM78.5622 25.88C79.3968 25.88 80.1887 25.9691 80.9461 26.1406L83.1544 16.3874C81.6505 16.0469 80.117 15.88 78.5622 15.88V25.88ZM80.8376 26.1147C80.8066 26.107 80.7648 26.0935 80.7172 26.0718C80.6695 26.0501 80.6266 26.0251 80.5909 26.0002L86.3256 17.8078C85.3913 17.1539 84.3599 16.6875 83.2629 16.4133L80.8376 26.1147ZM80.6847 26.0642C80.679 26.0604 80.6658 26.0508 80.6491 26.0351C80.6325 26.0193 80.6191 26.0039 80.6102 25.992L88.6103 19.992C87.9468 19.1075 87.1468 18.3538 86.2318 17.7437L80.6847 26.0642ZM80.6858 26.0902C80.6481 26.0424 80.621 25.9984 80.6031 25.9643C80.5856 25.9307 80.5812 25.9148 80.5841 25.9239L90.1084 22.8761C89.7705 21.8203 89.2561 20.8077 88.5347 19.8938L80.6858 26.0902ZM80.6028 25.9811C80.5988 25.969 80.5981 25.963 80.5987 25.9668C80.5993 25.9711 80.6022 25.9916 80.6022 26.032H90.6022C90.6022 24.9548 90.4414 23.874 90.0897 22.8189L80.6028 25.9811ZM80.6022 26.032C80.6022 26.9763 80.441 27.7866 80.1548 28.5078L89.4497 32.1962C90.2302 30.2294 90.6022 28.1597 90.6022 26.032H80.6022ZM80.1298 28.572C79.8742 29.2431 79.5058 29.8043 79.0001 30.2994L85.9964 37.4445C87.5387 35.9344 88.7063 34.1489 89.4747 32.132L80.1298 28.572ZM78.9627 30.3365C78.5258 30.7734 77.8938 31.2057 76.945 31.5665L80.4995 40.9135C82.58 40.1223 84.4654 38.9759 86.0338 37.4075L78.9627 30.3365ZM76.9229 31.575C76.1229 31.8836 75.0172 32.104 73.5062 32.104V42.104C75.9633 42.104 78.335 41.7484 80.5216 40.905L76.9229 31.575ZM93.5088 36.08L91.3515 40.5907L91.364 40.5967L91.3767 40.6026L93.5088 36.08ZM89.9887 33.168L85.8727 36.0067L85.8891 36.0305L85.9059 36.0542L89.9887 33.168ZM88.1967 28.848L83.2987 29.8527L83.3013 29.8652L88.1967 28.848ZM87.7168 18.448L82.7183 18.323L82.7175 18.3539L82.7171 18.3847L87.7168 18.448ZM87.8767 13.488L82.889 13.138L82.8838 13.213L82.8807 13.2882L87.8767 13.488ZM89.2207 10.608L92.4992 14.3832L92.5271 14.3589L92.5547 14.3342L89.2207 10.608ZM95.3648 10.608L92.0308 14.3342L92.0823 14.3803L92.135 14.4249L95.3648 10.608ZM96.7087 13.488L91.7157 13.7508L91.7158 13.7543L96.7087 13.488ZM96.8688 18.448L91.8691 18.5105L91.8695 18.5425L91.8704 18.5745L96.8688 18.448ZM96.9967 24.784L92.0242 25.3074L92.0378 25.4361L92.0579 25.5638L96.9967 24.784ZM97.3167 25.872L92.7858 27.9864L92.8144 28.0476L92.8446 28.1081L97.3167 25.872ZM97.9567 26.576L95.3363 30.8343L95.4055 30.8769L95.4761 30.9172L97.9567 26.576ZM100.965 25.872L105.437 28.1081L105.467 28.0476L105.496 27.9864L100.965 25.872ZM101.253 24.784L96.3139 24.0042L96.2938 24.1319L96.2802 24.2606L101.253 24.784ZM101.381 18.448L96.3823 18.323L96.3815 18.3539L96.3811 18.3847L101.381 18.448ZM101.573 13.488L106.566 13.7543L106.568 13.7104L106.57 13.6665L101.573 13.488ZM102.885 10.608L106.207 14.345L106.263 14.2949L106.318 14.2431L102.885 10.608ZM104.229 9.808L105.81 14.5514L105.866 14.5326L105.922 14.5124L104.229 9.808ZM107.685 9.808L105.991 14.5124L106.075 14.5428L106.161 14.5701L107.685 9.808ZM109.061 10.608L105.628 14.2431L105.731 14.3408L105.84 14.4326L109.061 10.608ZM110.021 11.856L114.531 9.69873L114.531 9.69872L110.021 11.856ZM110.405 13.488L105.408 13.6665L105.41 13.7104L105.412 13.7543L110.405 13.488ZM110.565 18.448L105.565 18.5105L105.566 18.5425L105.566 18.5745L110.565 18.448ZM110.085 28.848L105.199 27.7833L105.194 27.807L105.189 27.8308L110.085 28.848ZM108.261 33.168L104.178 30.2818L104.161 30.3055L104.145 30.3293L108.261 33.168ZM104.741 36.08L102.609 31.5574L102.596 31.5633L102.583 31.5693L104.741 36.08ZM99.1407 32.136C97.3595 32.136 96.2685 31.8532 95.6408 31.5574L91.3767 40.6026C93.7357 41.7148 96.3993 42.136 99.1407 42.136V32.136ZM95.666 31.5693C94.9031 31.2044 94.416 30.769 94.0716 30.2818L85.9059 36.0542C87.3108 38.0417 89.1704 39.5476 91.3515 40.5907L95.666 31.5693ZM94.1048 30.3293C93.6718 29.7015 93.3136 28.8963 93.0922 27.8308L83.3013 29.8652C83.7626 32.085 84.599 34.1598 85.8727 36.0067L94.1048 30.3293ZM93.0948 27.8433C92.8294 26.5494 92.6848 25.0974 92.6848 23.472H82.6848C82.6848 25.6866 82.8815 27.8186 83.2987 29.8527L93.0948 27.8433ZM92.6848 23.472C92.6848 21.8294 92.6953 20.1758 92.7163 18.5113L82.7171 18.3847C82.6956 20.0909 82.6848 21.7866 82.6848 23.472H92.6848ZM92.7152 18.573C92.7573 16.8896 92.8098 15.2613 92.8728 13.6878L82.8807 13.2882C82.8157 14.9147 82.7616 16.593 82.7183 18.323L92.7152 18.573ZM92.8645 13.838C92.8706 13.7503 92.8787 13.8183 92.8077 13.9704C92.7311 14.1345 92.6158 14.2819 92.4992 14.3832L85.9423 6.83283C83.9916 8.52689 83.0535 10.7937 82.889 13.138L92.8645 13.838ZM92.5547 14.3342C92.5203 14.365 92.4746 14.3998 92.4191 14.4326C92.3637 14.4655 92.3107 14.4893 92.266 14.5051C92.173 14.5381 92.1648 14.52 92.2927 14.52V4.52C90.0062 4.52 87.7407 5.22304 85.8868 6.88179L92.5547 14.3342ZM92.2927 14.52C92.4207 14.52 92.4125 14.5381 92.3195 14.5051C92.2748 14.4893 92.2218 14.4655 92.1664 14.4326C92.1109 14.3998 92.0652 14.365 92.0308 14.3342L98.6987 6.88179C96.8448 5.22304 94.5793 4.52 92.2927 4.52V14.52ZM92.135 14.4249C92.0157 14.3239 91.8844 14.1644 91.7938 13.9704C91.7089 13.7883 91.7124 13.6891 91.7157 13.7508L101.702 13.2252C101.575 10.8104 100.608 8.49506 98.5945 6.79107L92.135 14.4249ZM91.7158 13.7543C91.7973 15.2822 91.8486 16.8674 91.8691 18.5105L101.868 18.3855C101.846 16.6152 101.791 14.8938 101.702 13.2217L91.7158 13.7543ZM91.8704 18.5745C91.912 20.2183 91.9328 21.8507 91.9328 23.472H101.933C101.933 21.7653 101.911 20.0484 101.867 18.3215L91.8704 18.5745ZM91.9328 23.472C91.9328 24.0906 91.9608 24.7045 92.0242 25.3074L101.969 24.2606C101.947 24.0528 101.933 23.792 101.933 23.472H91.9328ZM92.0579 25.5638C92.1833 26.358 92.4099 27.1808 92.7858 27.9864L101.848 23.7576C101.925 23.9232 101.938 24.0206 101.936 24.0042L92.0579 25.5638ZM92.8446 28.1081C93.3995 29.2178 94.2443 30.1623 95.3363 30.8343L100.577 22.3177C101.114 22.6483 101.533 23.1235 101.789 23.6359L92.8446 28.1081ZM95.4761 30.9172C96.7849 31.6651 98.1297 31.832 99.1407 31.832V21.832C99.1704 21.832 99.726 21.8282 100.437 22.2348L95.4761 30.9172ZM99.1407 31.832C100.176 31.832 101.493 31.6488 102.773 30.9172L97.8121 22.2348C98.4949 21.8446 99.0437 21.832 99.1407 21.832V31.832ZM102.773 30.9172C103.902 30.2725 104.832 29.3175 105.437 28.1081L96.4926 23.6359C96.7986 23.0239 97.2811 22.5382 97.8121 22.2348L102.773 30.9172ZM105.496 27.9864C105.912 27.0935 106.133 26.1805 106.225 25.3074L96.2802 24.2606C96.2868 24.1982 96.3158 24.0105 96.4338 23.7576L105.496 27.9864ZM106.192 25.5638C106.302 24.867 106.349 24.1661 106.349 23.472H96.3488C96.3488 23.7166 96.3319 23.8904 96.3139 24.0042L106.192 25.5638ZM106.349 23.472C106.349 21.8294 106.359 20.1758 106.38 18.5113L96.3811 18.3847C96.3596 20.0909 96.3488 21.7866 96.3488 23.472H106.349ZM106.379 18.573C106.421 16.9104 106.483 15.3043 106.566 13.7543L96.5798 13.2217C96.4918 14.8717 96.4261 16.5723 96.3823 18.323L106.379 18.573ZM106.57 13.6665C106.569 13.6711 106.567 13.7108 106.552 13.7772C106.536 13.8447 106.509 13.9262 106.467 14.0133L97.4461 9.69872C96.8871 10.8675 96.6193 12.0946 96.5759 13.3095L106.57 13.6665ZM106.467 14.0133C106.452 14.0446 106.424 14.0965 106.377 14.1595C106.33 14.2231 106.272 14.2867 106.207 14.345L99.5629 6.87095C98.6527 7.68008 97.9508 8.64332 97.4461 9.69872L106.467 14.0133ZM106.318 14.2431C106.247 14.3103 106.162 14.3757 106.066 14.4325C105.971 14.4891 105.882 14.5272 105.81 14.5514L102.648 5.06458C101.46 5.4603 100.377 6.09929 99.4516 6.97294L106.318 14.2431ZM105.922 14.5124C105.911 14.5167 105.901 14.5196 105.893 14.5216C105.886 14.5235 105.882 14.5241 105.883 14.524C105.884 14.5238 105.907 14.52 105.957 14.52V4.52C104.813 4.52 103.659 4.69889 102.535 5.10356L105.922 14.5124ZM105.957 14.52C106.007 14.52 106.03 14.5238 106.031 14.524C106.031 14.5241 106.028 14.5235 106.02 14.5216C106.013 14.5196 106.003 14.5167 105.991 14.5124L109.378 5.10356C108.254 4.69889 107.1 4.52 105.957 4.52V14.52ZM106.161 14.5701C106.102 14.5512 106.016 14.5169 105.916 14.4585C105.814 14.3997 105.716 14.3267 105.628 14.2431L112.494 6.97294C111.533 6.06572 110.411 5.43058 109.209 5.04588L106.161 14.5701ZM105.84 14.4326C105.771 14.3742 105.703 14.3039 105.642 14.2246C105.581 14.1455 105.538 14.0719 105.51 14.0133L114.531 9.69872C113.998 8.58433 113.245 7.5948 112.281 6.78344L105.84 14.4326ZM105.51 14.0133C105.468 13.9262 105.442 13.8447 105.426 13.7772C105.41 13.7108 105.408 13.6711 105.408 13.6665L115.402 13.3095C115.358 12.0946 115.09 10.8675 114.531 9.69873L105.51 14.0133ZM105.412 13.7543C105.493 15.2822 105.545 16.8674 105.565 18.5105L115.564 18.3855C115.542 16.6152 115.487 14.8938 115.398 13.2217L105.412 13.7543ZM105.566 18.5745C105.608 20.2183 105.629 21.8507 105.629 23.472H115.629C115.629 21.7653 115.607 20.0484 115.563 18.3215L105.566 18.5745ZM105.629 23.472C105.629 25.0785 105.477 26.51 105.199 27.7833L114.97 29.9127C115.418 27.858 115.629 25.7055 115.629 23.472H105.629ZM105.189 27.8308C104.973 28.8737 104.616 29.6625 104.178 30.2818L112.344 36.0542C113.655 34.1988 114.514 32.1076 114.98 29.8652L105.189 27.8308ZM104.145 30.3293C103.841 30.7699 103.384 31.1917 102.609 31.5574L106.873 40.6026C109.084 39.5603 110.974 38.0407 112.377 36.0067L104.145 30.3293ZM102.583 31.5693C101.993 31.8518 100.926 32.136 99.1407 32.136V42.136C101.878 42.136 104.545 41.7162 106.898 40.5907L102.583 31.5693Z" fill="white" mask="url(#path-1-outside-1_1_6255)"/>
</g>
<defs>
<filter id="filter0_d_1_6255" x="0.216064" y="3.2002" width="120.413" height="47.9355" filterUnits="userSpaceOnUse" color-interpolation-filters="sRGB">
<feFlood flood-opacity="0" result="BackgroundImageFix"/>
<feColorMatrix in="SourceAlpha" type="matrix" values="0 0 0 0 0 0 0 0 0 0 0 0 0 0 0 0 0 0 127 0" result="hardAlpha"/>
<feOffset dy="4"/>
<feGaussianBlur stdDeviation="5"/>
<feComposite in2="hardAlpha" operator="out"/>
<feColorMatrix type="matrix" values="0 0 0 0 0 0 0 0 0 0 0 0 0 0 0 0 0 0 0.15 0"/>
<feBlend mode="normal" in2="BackgroundImageFix" result="effect1_dropShadow_1_6255"/>
<feBlend mode="normal" in="SourceGraphic" in2="effect1_dropShadow_1_6255" result="shape"/>
</filter>
</defs>
</svg>
